<svg version="1.1" xmlns="http://www.w3.org/2000/svg" xmlns:xlink="http://www.w3.org/1999/xlink" width="1317" height="2332"><defs/><g><g/><g/><g/><g/><g/><g/><g/><g/><g/><g/><g/><g/><g/><g/><g/><g/><g/><g/><g/><g/><g/><g/><g/><g/><g/><g/><g/><g/><g/><g/><g/><g/><g/><g/><g/><g/><g/><g/><g/><g/><g/><g/><g/><g/><g/><g/><g/><g><rect fill="white" stroke="none" x="0" y="0" width="1317" height="2332"/></g><g><text fill="black" stroke="none" font-family="sans-serif" font-size="16.5pt" font-style="normal" font-weight="normal" text-decoration="normal" x="464.0623943630683" y="24.50280495" text-anchor="start" dominant-baseline="alphabetic" xml:space="preserve">MC Hub - Cluster Modification Workflow</text></g><g/><g><path fill="none" stroke="black" paint-order="fill stroke markers" d=" M 41.36731041409375 95.887643371 L 41.36731041409375 2332.176975141" stroke-miterlimit="10" stroke-width="1.3612669416666667" stroke-dasharray="12.565541,5.445067766666667"/><path fill="none" stroke="black" paint-order="fill stroke markers" d=" M 506.2592725568021 95.887643371 L 506.2592725568021 2332.176975141" stroke-miterlimit="10" stroke-width="1.3612669416666667" stroke-dasharray="12.565541,5.445067766666667"/><path fill="none" stroke="black" paint-order="fill stroke markers" d=" M 804.0933572235339 95.887643371 L 804.0933572235339 2332.176975141" stroke-miterlimit="10" stroke-width="1.3612669416666667" stroke-dasharray="12.565541,5.445067766666667"/><path fill="none" stroke="black" paint-order="fill stroke markers" d=" M 1158.3792704859036 95.887643371 L 1158.3792704859036 2332.176975141" stroke-miterlimit="10" stroke-width="1.3612669416666667" stroke-dasharray="12.565541,5.445067766666667"/><path fill="none" stroke="black" paint-order="fill stroke markers" d=" M 1268.6028075967108 95.887643371 L 1268.6028075967108 2332.176975141" stroke-miterlimit="10" stroke-width="1.3612669416666667" stroke-dasharray="12.565541,5.445067766666667"/></g><g><path fill="none" stroke="none"/><g><path fill="white" stroke="black" paint-order="fill stroke markers" d=" M 8.167601650000002 51.782594461 L 74.56701917818751 51.782594461 L 74.56701917818751 95.887643371 L 8.167601650000002 95.887643371 L 8.167601650000002 51.782594461 Z" stroke-miterlimit="10" stroke-width="2.613632528" stroke-dasharray=""/></g><g><g/><text fill="black" stroke="none" font-family="sans-serif" font-size="11pt" font-style="normal" font-weight="normal" text-decoration="normal" x="25.8912972305" y="79.55244007099999" text-anchor="start" dominant-baseline="alphabetic" xml:space="preserve">User</text></g><path fill="none" stroke="none"/><g><path fill="white" stroke="black" paint-order="fill stroke markers" d=" M 461.6529857287435 51.782594461 L 550.8655593848607 51.782594461 L 550.8655593848607 95.887643371 L 461.6529857287435 95.887643371 L 461.6529857287435 51.782594461 Z" stroke-miterlimit="10" stroke-width="2.613632528" stroke-dasharray=""/></g><g><g/><text fill="black" stroke="none" font-family="sans-serif" font-size="11pt" font-style="normal" font-weight="normal" text-decoration="normal" x="479.3766813092435" y="79.55244007099999" text-anchor="start" dominant-baseline="alphabetic" xml:space="preserve">Browser</text></g><path fill="none" stroke="none"/><g><path fill="white" stroke="black" paint-order="fill stroke markers" d=" M 745.2315314550456 51.782594461 L 862.9551829920222 51.782594461 L 862.9551829920222 95.887643371 L 745.2315314550456 95.887643371 L 745.2315314550456 51.782594461 Z" stroke-miterlimit="10" stroke-width="2.613632528" stroke-dasharray=""/></g><g><g/><text fill="black" stroke="none" font-family="sans-serif" font-size="11pt" font-style="normal" font-weight="normal" text-decoration="normal" x="762.9552270355456" y="79.55244007099999" text-anchor="start" dominant-baseline="alphabetic" xml:space="preserve">Flask Server</text></g><path fill="none" stroke="none"/><g><path fill="white" stroke="black" paint-order="fill stroke markers" d=" M 1109.2955361480795 51.782594461 L 1207.463004823728 51.782594461 L 1207.463004823728 95.887643371 L 1109.2955361480795 95.887643371 L 1109.2955361480795 51.782594461 Z" stroke-miterlimit="10" stroke-width="2.613632528" stroke-dasharray=""/></g><g><g/><text fill="black" stroke="none" font-family="sans-serif" font-size="11pt" font-style="normal" font-weight="normal" text-decoration="normal" x="1127.0192317285794" y="79.55244007099999" text-anchor="start" dominant-baseline="alphabetic" xml:space="preserve">Terraform</text></g><path fill="none" stroke="none"/><g><path fill="white" stroke="black" paint-order="fill stroke markers" d=" M 1227.6615140547851 51.782594461 L 1309.5441011386367 51.782594461 L 1309.5441011386367 95.887643371 L 1227.6615140547851 95.887643371 L 1227.6615140547851 51.782594461 Z" stroke-miterlimit="10" stroke-width="2.613632528" stroke-dasharray=""/></g><g><g/><text fill="black" stroke="none" font-family="sans-serif" font-size="11pt" font-style="normal" font-weight="normal" text-decoration="normal" x="1245.385209635285" y="79.55244007099999" text-anchor="start" dominant-baseline="alphabetic" xml:space="preserve">Cluster</text></g></g><g><path fill="white" stroke="black" paint-order="fill stroke markers" d=" M 498.0916709068021 149.793814261 L 514.4268742068022 149.793814261 L 514.4268742068022 2315.841771841 L 498.0916709068021 2315.841771841 L 498.0916709068021 149.793814261" stroke-miterlimit="10" stroke-width="1.3612669416666667" stroke-dasharray=""/><path fill="white" stroke="black" paint-order="fill stroke markers" d=" M 795.9257555735338 195.532383501 L 812.2609588735339 195.532383501 L 812.2609588735339 241.270952741 L 795.9257555735338 241.270952741 L 795.9257555735338 195.532383501" stroke-miterlimit="10" stroke-width="1.3612669416666667" stroke-dasharray=""/><path fill="white" stroke="black" paint-order="fill stroke markers" d=" M 795.9257555735338 332.748091221 L 812.2609588735339 332.748091221 L 812.2609588735339 378.486660461 L 795.9257555735338 378.486660461 L 795.9257555735338 332.748091221" stroke-miterlimit="10" stroke-width="1.3612669416666667" stroke-dasharray=""/><path fill="white" stroke="black" paint-order="fill stroke markers" d=" M 795.9257555735338 424.225229701 L 812.2609588735339 424.225229701 L 812.2609588735339 561.440937421 L 795.9257555735338 561.440937421 L 795.9257555735338 424.225229701" stroke-miterlimit="10" stroke-width="1.3612669416666667" stroke-dasharray=""/><path fill="white" stroke="black" paint-order="fill stroke markers" d=" M 795.9257555735338 790.1337836209997 L 812.2609588735339 790.1337836209997 L 812.2609588735339 1040.0623941109995 L 795.9257555735338 1040.0623941109995 L 795.9257555735338 790.1337836209997" stroke-miterlimit="10" stroke-width="1.3612669416666667" stroke-dasharray=""/><path fill="white" stroke="black" paint-order="fill stroke markers" d=" M 1150.2116688359035 902.8466863909996 L 1166.5468721359036 902.8466863909996 L 1166.5468721359036 994.3238248709995 L 1150.2116688359035 994.3238248709995 L 1150.2116688359035 902.8466863909996" stroke-miterlimit="10" stroke-width="1.3612669416666667" stroke-dasharray=""/><path fill="white" stroke="black" paint-order="fill stroke markers" d=" M 795.9257555735338 1177.2781018309997 L 812.2609588735339 1177.2781018309997 L 812.2609588735339 2137.788055871001 L 795.9257555735338 2137.788055871001 L 795.9257555735338 1177.2781018309997" stroke-miterlimit="10" stroke-width="1.3612669416666667" stroke-dasharray=""/><path fill="white" stroke="black" paint-order="fill stroke markers" d=" M 1150.2116688359035 1223.0166710709998 L 1166.5468721359036 1223.0166710709998 L 1166.5468721359036 1360.232378791 L 1150.2116688359035 1360.232378791 L 1150.2116688359035 1223.0166710709998" stroke-miterlimit="10" stroke-width="1.3612669416666667" stroke-dasharray=""/><path fill="white" stroke="black" paint-order="fill stroke markers" d=" M 804.0933572235339 1268.7552403109999 L 820.428560523534 1268.7552403109999 L 820.428560523534 1314.493809551 L 804.0933572235339 1314.493809551 L 804.0933572235339 1268.7552403109999" stroke-miterlimit="10" stroke-width="1.3612669416666667" stroke-dasharray=""/><path fill="white" stroke="black" paint-order="fill stroke markers" d=" M 804.0933572235339 1405.970948031 L 820.428560523534 1405.970948031 L 820.428560523534 1451.709517271 L 804.0933572235339 1451.709517271 L 804.0933572235339 1405.970948031" stroke-miterlimit="10" stroke-width="1.3612669416666667" stroke-dasharray=""/><path fill="white" stroke="black" paint-order="fill stroke markers" d=" M 804.0933572235339 1497.4480865110002 L 820.428560523534 1497.4480865110002 L 820.428560523534 1634.6637942310003 L 804.0933572235339 1634.6637942310003 L 804.0933572235339 1497.4480865110002" stroke-miterlimit="10" stroke-width="1.3612669416666667" stroke-dasharray=""/><path fill="white" stroke="black" paint-order="fill stroke markers" d=" M 1260.4352059467108 1726.1409327110005 L 1276.7704092467109 1726.1409327110005 L 1276.7704092467109 1771.8795019510005 L 1260.4352059467108 1771.8795019510005 L 1260.4352059467108 1726.1409327110005" stroke-miterlimit="10" stroke-width="1.3612669416666667" stroke-dasharray=""/><path fill="white" stroke="black" paint-order="fill stroke markers" d=" M 1260.4352059467108 1817.6180711910006 L 1276.7704092467109 1817.6180711910006 L 1276.7704092467109 1863.3566404310006 L 1260.4352059467108 1863.3566404310006 L 1260.4352059467108 1817.6180711910006" stroke-miterlimit="10" stroke-width="1.3612669416666667" stroke-dasharray=""/><path fill="white" stroke="black" paint-order="fill stroke markers" d=" M 804.0933572235339 1909.0952096710007 L 820.428560523534 1909.0952096710007 L 820.428560523534 1954.8337789110008 L 804.0933572235339 1954.8337789110008 L 804.0933572235339 1909.0952096710007" stroke-miterlimit="10" stroke-width="1.3612669416666667" stroke-dasharray=""/><path fill="white" stroke="black" paint-order="fill stroke markers" d=" M 1260.4352059467108 2000.5723481510008 L 1276.7704092467109 2000.5723481510008 L 1276.7704092467109 2046.3109173910009 L 1260.4352059467108 2046.3109173910009 L 1260.4352059467108 2000.5723481510008" stroke-miterlimit="10" stroke-width="1.3612669416666667" stroke-dasharray=""/><path fill="white" stroke="black" paint-order="fill stroke markers" d=" M 1260.4352059467108 2092.049486631001 L 1276.7704092467109 2092.049486631001 L 1276.7704092467109 2137.788055871001 L 1260.4352059467108 2137.788055871001 L 1260.4352059467108 2092.049486631001" stroke-miterlimit="10" stroke-width="1.3612669416666667" stroke-dasharray=""/><path fill="white" stroke="black" paint-order="fill stroke markers" d=" M 795.9257555735338 2183.5266251110006 L 812.2609588735339 2183.5266251110006 L 812.2609588735339 2229.2651943510004 L 795.9257555735338 2229.2651943510004 L 795.9257555735338 2183.5266251110006" stroke-miterlimit="10" stroke-width="1.3612669416666667" stroke-dasharray=""/><g><g><rect fill="white" stroke="none" x="60.697300985760435" y="128.558049971" width="418.064379349375" height="21.23576429"/></g><text fill="black" stroke="none" font-family="sans-serif" font-size="11pt" font-style="normal" font-weight="normal" text-decoration="normal" x="63.14758148076044" y="143.259732941" text-anchor="start" dominant-baseline="alphabetic" xml:space="preserve">Navigates to localhost:5000/clusters/&lt;cluster_name&gt;.&lt;domain&gt;</text></g><g><path fill="none" stroke="black" paint-order="fill stroke markers" d=" M 41.36731041409375 149.793814261 L 495.3691370234688 149.793814261" stroke-miterlimit="10" stroke-width="1.3612669416666667" stroke-dasharray=""/><g transform="translate(498.0916709068021,149.793814261) translate(-498.0916709068021,-149.793814261)"><path fill="black" stroke="none" paint-order="stroke fill markers" d=" M 484.47900149013543 142.98747955266666 L 498.0916709068021 149.793814261 L 484.47900149013543 156.60014896933333 Z"/></g></g><g><g><rect fill="white" stroke="none" x="540.2887175006367" y="174.296619211" width="229.7751947790625" height="21.23576429"/></g><text fill="black" stroke="none" font-family="sans-serif" font-size="11pt" font-style="normal" font-weight="normal" text-decoration="normal" x="542.7389979956367" y="188.99830218099999" text-anchor="start" dominant-baseline="alphabetic" xml:space="preserve">Requests cluster modification form</text></g><g><path fill="none" stroke="black" paint-order="fill stroke markers" d=" M 514.4268742068022 195.532383501 L 793.2032216902005 195.532383501" stroke-miterlimit="10" stroke-width="1.3612669416666667" stroke-dasharray=""/><g transform="translate(795.9257555735338,195.532383501) translate(-795.9257555735338,-195.532383501)"><path fill="black" stroke="none" paint-order="stroke fill markers" d=" M 782.3130861568671 188.72604879266666 L 795.9257555735338 195.532383501 L 782.3130861568671 202.33871820933334 Z"/></g></g><g><g><rect fill="white" stroke="none" x="571.6630766314961" y="220.035188451" width="167.02647651734375" height="21.23576429"/></g><text fill="black" stroke="none" font-family="sans-serif" font-size="11pt" font-style="normal" font-weight="normal" text-decoration="normal" x="574.1133571264961" y="234.736871421" text-anchor="start" dominant-baseline="alphabetic" xml:space="preserve">Cluster modification form</text></g><g><path fill="none" stroke="black" paint-order="fill stroke markers" d=" M 795.9257555735338 241.270952741 L 517.1494080901355 241.270952741" stroke-miterlimit="10" stroke-width="1.3612669416666667" stroke-dasharray="6.53408132"/><g transform="translate(514.4268742068022,241.270952741) translate(-514.4268742068022,-241.270952741)"><path fill="black" stroke="none" paint-order="stroke fill markers" d=" M 528.0395436234688 234.46461803266666 L 514.4268742068022 241.270952741 L 528.0395436234688 248.07728744933334 Z"/></g></g><g><g><rect fill="white" stroke="none" x="158.1096163544128" y="265.77375769099996" width="223.23974861207031" height="21.23576429"/></g><text fill="black" stroke="none" font-family="sans-serif" font-size="11pt" font-style="normal" font-weight="normal" text-decoration="normal" x="160.55989684941278" y="280.47544066099994" text-anchor="start" dominant-baseline="alphabetic" xml:space="preserve">Displays cluster modification form</text></g><g><path fill="none" stroke="black" paint-order="fill stroke markers" d=" M 498.0916709068021 287.009521981 L 44.089844297427085 287.009521981" stroke-miterlimit="10" stroke-width="1.3612669416666667" stroke-dasharray="6.53408132"/><g transform="translate(41.36731041409375,287.009521981) translate(-41.36731041409375,-287.009521981)"><path fill="black" stroke="none" paint-order="stroke fill markers" d=" M 54.97997983076042 280.20318727266664 L 41.36731041409375 287.009521981 L 54.97997983076042 293.8158566893333 Z"/></g></g><g><g><rect fill="white" stroke="none" x="615.2457411212422" y="311.51232693099996" width="79.86114753785156" height="21.23576429"/></g><text fill="black" stroke="none" font-family="sans-serif" font-size="11pt" font-style="normal" font-weight="normal" text-decoration="normal" x="617.6960216162422" y="326.21400990099994" text-anchor="start" dominant-baseline="alphabetic" xml:space="preserve">Polls status</text></g><g><path fill="none" stroke="black" paint-order="fill stroke markers" d=" M 514.4268742068022 332.748091221 L 793.2032216902005 332.748091221" stroke-miterlimit="10" stroke-width="1.3612669416666667" stroke-dasharray=""/><g transform="translate(795.9257555735338,332.748091221) translate(-795.9257555735338,-332.748091221)"><path fill="black" stroke="none" paint-order="stroke fill markers" d=" M 782.3130861568671 325.94175651266664 L 795.9257555735338 332.748091221 L 782.3130861568671 339.5544259293333 Z"/></g></g><g><g><rect fill="white" stroke="none" x="558.202108613918" y="357.25089617099997" width="193.9484125525" height="21.23576429"/></g><text fill="black" stroke="none" font-family="sans-serif" font-size="11pt" font-style="normal" font-weight="normal" text-decoration="normal" x="560.652389108918" y="371.95257914099994" text-anchor="start" dominant-baseline="alphabetic" xml:space="preserve">Status: provisioning_success</text></g><g><path fill="none" stroke="black" paint-order="fill stroke markers" d=" M 795.9257555735338 378.486660461 L 517.1494080901355 378.486660461" stroke-miterlimit="10" stroke-width="1.3612669416666667" stroke-dasharray="6.53408132"/><g transform="translate(514.4268742068022,378.486660461) translate(-514.4268742068022,-378.486660461)"><path fill="black" stroke="none" paint-order="stroke fill markers" d=" M 528.0395436234688 371.68032575266665 L 514.4268742068022 378.486660461 L 528.0395436234688 385.2929951693333 Z"/></g></g><g><g><rect fill="white" stroke="none" x="591.2013685626484" y="402.98946541099997" width="127.94989265503906" height="21.23576429"/></g><text fill="black" stroke="none" font-family="sans-serif" font-size="11pt" font-style="normal" font-weight="normal" text-decoration="normal" x="593.6516490576485" y="417.69114838099995" text-anchor="start" dominant-baseline="alphabetic" xml:space="preserve">Loads cluster state</text></g><g><path fill="none" stroke="black" paint-order="fill stroke markers" d=" M 514.4268742068022 424.225229701 L 793.2032216902005 424.225229701" stroke-miterlimit="10" stroke-width="1.3612669416666667" stroke-dasharray=""/><g transform="translate(795.9257555735338,424.225229701) translate(-795.9257555735338,-424.225229701)"><path fill="black" stroke="none" paint-order="stroke fill markers" d=" M 782.3130861568671 417.41889499266665 L 795.9257555735338 424.225229701 L 782.3130861568671 431.0315644093333 Z"/></g></g><g><g><rect fill="white" stroke="none" x="533.7568647784688" y="448.728034651" width="242.83890022339844" height="21.23576429"/></g><text fill="black" stroke="none" font-family="sans-serif" font-size="11pt" font-style="normal" font-weight="normal" text-decoration="normal" x="536.2071452734688" y="463.42971762099995" text-anchor="start" dominant-baseline="alphabetic" xml:space="preserve">Gets available OpenStack resources</text></g><g><path fill="none" stroke="black" paint-order="fill stroke markers" d=" M 514.4268742068022 469.963798941 L 793.2032216902005 469.963798941" stroke-miterlimit="10" stroke-width="1.3612669416666667" stroke-dasharray=""/><g transform="translate(795.9257555735338,469.963798941) translate(-795.9257555735338,-469.963798941)"><path fill="black" stroke="none" paint-order="stroke fill markers" d=" M 782.3130861568671 463.15746423266665 L 795.9257555735338 469.963798941 L 782.3130861568671 476.77013364933333 Z"/></g></g><g><g><rect fill="white" stroke="none" x="611.5807402057148" y="494.466603891" width="87.19114936890625" height="21.23576429"/></g><text fill="black" stroke="none" font-family="sans-serif" font-size="11pt" font-style="normal" font-weight="normal" text-decoration="normal" x="614.0310207007149" y="509.16828686099996" text-anchor="start" dominant-baseline="alphabetic" xml:space="preserve">Cluster state</text></g><g><path fill="none" stroke="black" paint-order="fill stroke markers" d=" M 795.9257555735338 515.702368181 L 517.1494080901355 515.702368181" stroke-miterlimit="10" stroke-width="1.3612669416666667" stroke-dasharray="6.53408132"/><g transform="translate(514.4268742068022,515.702368181) translate(-514.4268742068022,-515.702368181)"><path fill="black" stroke="none" paint-order="stroke fill markers" d=" M 528.0395436234688 508.89603347266666 L 514.4268742068022 515.702368181 L 528.0395436234688 522.5087028893333 Z"/></g></g><g><g><rect fill="white" stroke="none" x="550.5929472369648" y="540.2051731309999" width="209.16673530640625" height="21.23576429"/></g><text fill="black" stroke="none" font-family="sans-serif" font-size="11pt" font-style="normal" font-weight="normal" text-decoration="normal" x="553.0432277319649" y="554.9068561009999" text-anchor="start" dominant-baseline="alphabetic" xml:space="preserve">Available OpenStack resources</text></g><g><path fill="none" stroke="black" paint-order="fill stroke markers" d=" M 795.9257555735338 561.440937421 L 517.1494080901355 561.440937421" stroke-miterlimit="10" stroke-width="1.3612669416666667" stroke-dasharray="6.53408132"/><g transform="translate(514.4268742068022,561.440937421) translate(-514.4268742068022,-561.440937421)"><path fill="black" stroke="none" paint-order="stroke fill markers" d=" M 528.0395436234688 554.6346027126666 L 514.4268742068022 561.440937421 L 528.0395436234688 568.2472721293333 Z"/></g></g><g><g><rect fill="white" stroke="none" x="118.57135494083856" y="585.9437423709999" width="302.3162714392187" height="21.23576429"/></g><text fill="black" stroke="none" font-family="sans-serif" font-size="11pt" font-style="normal" font-weight="normal" text-decoration="normal" x="121.02163543583856" y="600.6454253409999" text-anchor="start" dominant-baseline="alphabetic" xml:space="preserve">Displays cluster state and available resources</text></g><g><path fill="none" stroke="black" paint-order="fill stroke markers" d=" M 498.0916709068021 607.1795066609999 L 44.089844297427085 607.1795066609999" stroke-miterlimit="10" stroke-width="1.3612669416666667" stroke-dasharray="6.53408132"/><g transform="translate(41.36731041409375,607.1795066609999) translate(-41.36731041409375,-607.1795066609999)"><path fill="black" stroke="none" paint-order="stroke fill markers" d=" M 54.97997983076042 600.3731719526666 L 41.36731041409375 607.1795066609999 L 54.97997983076042 613.9858413693332 Z"/></g></g><g><g><rect fill="white" stroke="none" x="165.83688075870967" y="631.6823116109998" width="207.78521980347656" height="21.23576429"/></g><text fill="black" stroke="none" font-family="sans-serif" font-size="11pt" font-style="normal" font-weight="normal" text-decoration="normal" x="168.28716125370966" y="646.3839945809998" text-anchor="start" dominant-baseline="alphabetic" xml:space="preserve">Modifies the desired form fields</text></g><g><path fill="none" stroke="black" paint-order="fill stroke markers" d=" M 41.36731041409375 652.9180759009998 L 495.3691370234688 652.9180759009998" stroke-miterlimit="10" stroke-width="1.3612669416666667" stroke-dasharray=""/><g transform="translate(498.0916709068021,652.9180759009998) translate(-498.0916709068021,-652.9180759009998)"><path fill="black" stroke="none" paint-order="stroke fill markers" d=" M 484.47900149013543 646.1117411926665 L 498.0916709068021 652.9180759009998 L 484.47900149013543 659.7244106093332 Z"/></g></g><g><g><rect fill="white" stroke="none" x="177.32577236027217" y="677.4208808509998" width="184.80743660035156" height="21.23576429"/></g><text fill="black" stroke="none" font-family="sans-serif" font-size="11pt" font-style="normal" font-weight="normal" text-decoration="normal" x="179.77605285527216" y="692.1225638209997" text-anchor="start" dominant-baseline="alphabetic" xml:space="preserve">Clicks on the "Apply" button</text></g><g><path fill="none" stroke="black" paint-order="fill stroke markers" d=" M 41.36731041409375 698.6566451409998 L 495.3691370234688 698.6566451409998" stroke-miterlimit="10" stroke-width="1.3612669416666667" stroke-dasharray=""/><g transform="translate(498.0916709068021,698.6566451409998) translate(-498.0916709068021,-698.6566451409998)"><path fill="black" stroke="none" paint-order="stroke fill markers" d=" M 484.47900149013543 691.8503104326664 L 498.0916709068021 698.6566451409998 L 484.47900149013543 705.4629798493331 Z"/></g></g><g><g><rect fill="white" stroke="none" x="180.08526332706904" y="723.1594500909997" width="179.28845466675781" height="21.23576429"/></g><text fill="black" stroke="none" font-family="sans-serif" font-size="11pt" font-style="normal" font-weight="normal" text-decoration="normal" x="182.53554382206903" y="737.8611330609997" text-anchor="start" dominant-baseline="alphabetic" xml:space="preserve">Displays loading animation</text></g><g><path fill="none" stroke="black" paint-order="fill stroke markers" d=" M 498.0916709068021 744.3952143809997 L 44.089844297427085 744.3952143809997" stroke-miterlimit="10" stroke-width="1.3612669416666667" stroke-dasharray="6.53408132"/><g transform="translate(41.36731041409375,744.3952143809997) translate(-41.36731041409375,-744.3952143809997)"><path fill="black" stroke="none" paint-order="stroke fill markers" d=" M 54.97997983076042 737.5888796726664 L 41.36731041409375 744.3952143809997 L 54.97997983076042 751.2015490893331 Z"/></g></g><g><g><rect fill="white" stroke="none" x="576.9386579913594" y="768.8980193309997" width="156.4753137976172" height="21.23576429"/></g><text fill="black" stroke="none" font-family="sans-serif" font-size="11pt" font-style="normal" font-weight="normal" text-decoration="normal" x="579.3889384863594" y="783.5997023009996" text-anchor="start" dominant-baseline="alphabetic" xml:space="preserve">Sends the form content</text></g><g><path fill="none" stroke="black" paint-order="fill stroke markers" d=" M 514.4268742068022 790.1337836209997 L 793.2032216902005 790.1337836209997" stroke-miterlimit="10" stroke-width="1.3612669416666667" stroke-dasharray=""/><g transform="translate(795.9257555735338,790.1337836209997) translate(-795.9257555735338,-790.1337836209997)"><path fill="black" stroke="none" paint-order="stroke fill markers" d=" M 782.3130861568671 783.3274489126663 L 795.9257555735338 790.1337836209997 L 782.3130861568671 796.940118329333 Z"/></g></g><g><g><rect fill="white" stroke="none" x="831.5909494452006" y="814.6365885709996" width="304.7357965857031" height="21.23576429"/></g><text fill="black" stroke="none" font-family="sans-serif" font-size="11pt" font-style="normal" font-weight="normal" text-decoration="normal" x="834.0412299402007" y="829.3382715409996" text-anchor="start" dominant-baseline="alphabetic" xml:space="preserve">main.tf.json is modified with the form variables</text></g><g><path fill="none" stroke="black" paint-order="fill stroke markers" d=" M 812.2609588735339 835.8723528609996 L 877.6017720735339 835.8723528609996 L 877.6017720735339 857.1081171509996 L 814.9834927568672 857.1081171509996" stroke-miterlimit="10" stroke-width="1.3612669416666667" stroke-dasharray=""/><g transform="translate(812.2609588735339,857.1081171509996) translate(-812.2609588735339,-857.1081171509996)"><path fill="black" stroke="none" paint-order="stroke fill markers" d=" M 825.8736282902006 850.3017824426663 L 812.2609588735339 857.1081171509996 L 825.8736282902006 863.914451859333 Z"/></g></g><g><g><rect fill="white" stroke="none" x="937.6479031717304" y="881.6109221009996" width="87.17682136597656" height="21.23576429"/></g><text fill="black" stroke="none" font-family="sans-serif" font-size="11pt" font-style="normal" font-weight="normal" text-decoration="normal" x="940.0981836667304" y="896.3126050709996" text-anchor="start" dominant-baseline="alphabetic" xml:space="preserve">terraform init</text></g><g><path fill="none" stroke="black" paint-order="fill stroke markers" d=" M 812.2609588735339 902.8466863909996 L 1147.48913495257 902.8466863909996" stroke-miterlimit="10" stroke-width="1.3612669416666667" stroke-dasharray=""/><g transform="translate(1150.2116688359035,902.8466863909996) translate(-1150.2116688359035,-902.8466863909996)"><path fill="black" stroke="none" paint-order="stroke fill markers" d=" M 1136.5989994192369 896.0403516826663 L 1150.2116688359035 902.8466863909996 L 1136.5989994192369 909.6530210993329 Z"/></g></g><g><g><rect fill="white" stroke="none" x="933.1597134744648" y="927.3494913409995" width="96.15320076050781" height="21.23576429"/></g><text fill="black" stroke="none" font-family="sans-serif" font-size="11pt" font-style="normal" font-weight="normal" text-decoration="normal" x="935.6099939694648" y="942.0511743109995" text-anchor="start" dominant-baseline="alphabetic" xml:space="preserve">terraform plan</text></g><g><path fill="none" stroke="black" paint-order="fill stroke markers" d=" M 812.2609588735339 948.5852556309995 L 1147.48913495257 948.5852556309995" stroke-miterlimit="10" stroke-width="1.3612669416666667" stroke-dasharray=""/><g transform="translate(1150.2116688359035,948.5852556309995) translate(-1150.2116688359035,-948.5852556309995)"><path fill="black" stroke="none" paint-order="stroke fill markers" d=" M 1136.5989994192369 941.7789209226662 L 1150.2116688359035 948.5852556309995 L 1136.5989994192369 955.3915903393329 Z"/></g></g><g><g><rect fill="white" stroke="none" x="922.7874905740741" y="973.0880605809995" width="116.89764656128906" height="21.23576429"/></g><text fill="black" stroke="none" font-family="sans-serif" font-size="11pt" font-style="normal" font-weight="normal" text-decoration="normal" x="925.2377710690741" y="987.7897435509994" text-anchor="start" dominant-baseline="alphabetic" xml:space="preserve">Plan's raw output</text></g><g><path fill="none" stroke="black" paint-order="fill stroke markers" d=" M 1150.2116688359035 994.3238248709995 L 814.9834927568672 994.3238248709995" stroke-miterlimit="10" stroke-width="1.3612669416666667" stroke-dasharray="6.53408132"/><g transform="translate(812.2609588735339,994.3238248709995) translate(-812.2609588735339,-994.3238248709995)"><path fill="black" stroke="none" paint-order="stroke fill markers" d=" M 825.8736282902006 987.5174901626661 L 812.2609588735339 994.3238248709995 L 825.8736282902006 1001.1301595793328 Z"/></g></g><g><g><rect fill="white" stroke="none" x="603.4275495929219" y="1018.8266298209995" width="103.49753059449219" height="21.23576429"/></g><text fill="black" stroke="none" font-family="sans-serif" font-size="11pt" font-style="normal" font-weight="normal" text-decoration="normal" x="605.8778300879219" y="1033.5283127909995" text-anchor="start" dominant-baseline="alphabetic" xml:space="preserve">Formatted plan</text></g><g><path fill="none" stroke="black" paint-order="fill stroke markers" d=" M 795.9257555735338 1040.0623941109995 L 517.1494080901355 1040.0623941109995" stroke-miterlimit="10" stroke-width="1.3612669416666667" stroke-dasharray="6.53408132"/><g transform="translate(514.4268742068022,1040.0623941109995) translate(-514.4268742068022,-1040.0623941109995)"><path fill="black" stroke="none" paint-order="stroke fill markers" d=" M 528.0395436234688 1033.2560594026663 L 514.4268742068022 1040.0623941109995 L 528.0395436234688 1046.8687288193328 Z"/></g></g><g><g><rect fill="white" stroke="none" x="223.68581874699092" y="1064.5651990609997" width="92.08734382691406" height="21.23576429"/></g><text fill="black" stroke="none" font-family="sans-serif" font-size="11pt" font-style="normal" font-weight="normal" text-decoration="normal" x="226.1360992419909" y="1079.2668820309998" text-anchor="start" dominant-baseline="alphabetic" xml:space="preserve">Displays plan</text></g><g><path fill="none" stroke="black" paint-order="fill stroke markers" d=" M 498.0916709068021 1085.8009633509996 L 44.089844297427085 1085.8009633509996" stroke-miterlimit="10" stroke-width="1.3612669416666667" stroke-dasharray="6.53408132"/><g transform="translate(41.36731041409375,1085.8009633509996) translate(-41.36731041409375,-1085.8009633509996)"><path fill="black" stroke="none" paint-order="stroke fill markers" d=" M 54.97997983076042 1078.9946286426664 L 41.36731041409375 1085.8009633509996 L 54.97997983076042 1092.6072980593328 Z"/></g></g><g><g><rect fill="white" stroke="none" x="198.53550441593623" y="1110.3037683009998" width="142.38797248902344" height="21.23576429"/></g><text fill="black" stroke="none" font-family="sans-serif" font-size="11pt" font-style="normal" font-weight="normal" text-decoration="normal" x="200.98578491093622" y="1125.0054512709999" text-anchor="start" dominant-baseline="alphabetic" xml:space="preserve">Clicks "ok" to confirm</text></g><g><path fill="none" stroke="black" paint-order="fill stroke markers" d=" M 41.36731041409375 1131.5395325909997 L 495.3691370234688 1131.5395325909997" stroke-miterlimit="10" stroke-width="1.3612669416666667" stroke-dasharray=""/><g transform="translate(498.0916709068021,1131.5395325909997) translate(-498.0916709068021,-1131.5395325909997)"><path fill="black" stroke="none" paint-order="stroke fill markers" d=" M 484.47900149013543 1124.7331978826664 L 498.0916709068021 1131.5395325909997 L 484.47900149013543 1138.345867299333 Z"/></g></g><g><g><rect fill="white" stroke="none" x="600.5642836017109" y="1156.0423375409998" width="109.22406257691406" height="21.23576429"/></g><text fill="black" stroke="none" font-family="sans-serif" font-size="11pt" font-style="normal" font-weight="normal" text-decoration="normal" x="603.014564096711" y="1170.744020511" text-anchor="start" dominant-baseline="alphabetic" xml:space="preserve">Applies the plan</text></g><g><path fill="none" stroke="black" paint-order="fill stroke markers" d=" M 514.4268742068022 1177.2781018309997 L 793.2032216902005 1177.2781018309997" stroke-miterlimit="10" stroke-width="1.3612669416666667" stroke-dasharray=""/><g transform="translate(795.9257555735338,1177.2781018309997) translate(-795.9257555735338,-1177.2781018309997)"><path fill="none" stroke="black" paint-order="fill stroke markers" d=" M 782.3130861568671 1170.4717671226665 L 794.5644886318671 1177.2781018309997 L 782.3130861568671 1184.084436539333" stroke-miterlimit="10" stroke-width="1.3612669416666667"/></g></g><g><g><rect fill="white" stroke="none" x="929.4947201883319" y="1201.7809067809999" width="103.48318733277344" height="21.23576429"/></g><text fill="black" stroke="none" font-family="sans-serif" font-size="11pt" font-style="normal" font-weight="normal" text-decoration="normal" x="931.945000683332" y="1216.482589751" text-anchor="start" dominant-baseline="alphabetic" xml:space="preserve">terraform apply</text></g><g><path fill="none" stroke="black" paint-order="fill stroke markers" d=" M 812.2609588735339 1223.0166710709998 L 1147.48913495257 1223.0166710709998" stroke-miterlimit="10" stroke-width="1.3612669416666667" stroke-dasharray=""/><g transform="translate(1150.2116688359035,1223.0166710709998) translate(-1150.2116688359035,-1223.0166710709998)"><path fill="black" stroke="none" paint-order="stroke fill markers" d=" M 1136.5989994192369 1216.2103363626666 L 1150.2116688359035 1223.0166710709998 L 1136.5989994192369 1229.823005779333 Z"/></g></g><g><g><rect fill="white" stroke="none" x="619.3295419462422" y="1247.519476021" width="79.86114753785156" height="21.23576429"/></g><text fill="black" stroke="none" font-family="sans-serif" font-size="11pt" font-style="normal" font-weight="normal" text-decoration="normal" x="621.7798224412422" y="1262.221158991" text-anchor="start" dominant-baseline="alphabetic" xml:space="preserve">Polls status</text></g><g><path fill="none" stroke="black" paint-order="fill stroke markers" d=" M 514.4268742068022 1268.7552403109999 L 801.3708233402006 1268.7552403109999" stroke-miterlimit="10" stroke-width="1.3612669416666667" stroke-dasharray=""/><g transform="translate(804.0933572235339,1268.7552403109999) translate(-804.0933572235339,-1268.7552403109999)"><path fill="black" stroke="none" paint-order="stroke fill markers" d=" M 790.4806878068672 1261.9489056026666 L 804.0933572235339 1268.7552403109999 L 790.4806878068672 1275.561575019333 Z"/></g></g><g><g><rect fill="white" stroke="none" x="587.9408624418477" y="1293.258045261" width="142.63850654664063" height="21.23576429"/></g><text fill="black" stroke="none" font-family="sans-serif" font-size="11pt" font-style="normal" font-weight="normal" text-decoration="normal" x="590.3911429368477" y="1307.959728231" text-anchor="start" dominant-baseline="alphabetic" xml:space="preserve">Status: build_running</text></g><g><path fill="none" stroke="black" paint-order="fill stroke markers" d=" M 804.0933572235339 1314.493809551 L 517.1494080901355 1314.493809551" stroke-miterlimit="10" stroke-width="1.3612669416666667" stroke-dasharray="6.53408132"/><g transform="translate(514.4268742068022,1314.493809551) translate(-514.4268742068022,-1314.493809551)"><path fill="black" stroke="none" paint-order="stroke fill markers" d=" M 528.0395436234688 1307.6874748426667 L 514.4268742068022 1314.493809551 L 528.0395436234688 1321.3001442593331 Z"/></g></g><g><g><rect fill="white" stroke="none" x="890.3787762796405" y="1338.996614501" width="181.71507515015625" height="21.23576429"/></g><text fill="black" stroke="none" font-family="sans-serif" font-size="11pt" font-style="normal" font-weight="normal" text-decoration="normal" x="892.8290567746405" y="1353.6982974710002" text-anchor="start" dominant-baseline="alphabetic" xml:space="preserve">terraform apply return code</text></g><g><path fill="none" stroke="black" paint-order="fill stroke markers" d=" M 1150.2116688359035 1360.232378791 L 814.9834927568672 1360.232378791" stroke-miterlimit="10" stroke-width="1.3612669416666667" stroke-dasharray="6.53408132"/><g transform="translate(812.2609588735339,1360.232378791) translate(-812.2609588735339,-1360.232378791)"><path fill="black" stroke="none" paint-order="stroke fill markers" d=" M 825.8736282902006 1353.4260440826667 L 812.2609588735339 1360.232378791 L 825.8736282902006 1367.0387134993332 Z"/></g></g><g><g><rect fill="white" stroke="none" x="619.3295419462422" y="1384.7351837410001" width="79.86114753785156" height="21.23576429"/></g><text fill="black" stroke="none" font-family="sans-serif" font-size="11pt" font-style="normal" font-weight="normal" text-decoration="normal" x="621.7798224412422" y="1399.4368667110002" text-anchor="start" dominant-baseline="alphabetic" xml:space="preserve">Polls status</text></g><g><path fill="none" stroke="black" paint-order="fill stroke markers" d=" M 514.4268742068022 1405.970948031 L 801.3708233402006 1405.970948031" stroke-miterlimit="10" stroke-width="1.3612669416666667" stroke-dasharray=""/><g transform="translate(804.0933572235339,1405.970948031) translate(-804.0933572235339,-1405.970948031)"><path fill="black" stroke="none" paint-order="stroke fill markers" d=" M 790.4806878068672 1399.1646133226668 L 804.0933572235339 1405.970948031 L 790.4806878068672 1412.7772827393333 Z"/></g></g><g><g><rect fill="white" stroke="none" x="564.31167390425" y="1430.4737529810002" width="189.89688362183594" height="21.23576429"/></g><text fill="black" stroke="none" font-family="sans-serif" font-size="11pt" font-style="normal" font-weight="normal" text-decoration="normal" x="566.76195439925" y="1445.1754359510003" text-anchor="start" dominant-baseline="alphabetic" xml:space="preserve">Status: provisioning_running</text></g><g><path fill="none" stroke="black" paint-order="fill stroke markers" d=" M 804.0933572235339 1451.709517271 L 517.1494080901355 1451.709517271" stroke-miterlimit="10" stroke-width="1.3612669416666667" stroke-dasharray="6.53408132"/><g transform="translate(514.4268742068022,1451.709517271) translate(-514.4268742068022,-1451.709517271)"><path fill="black" stroke="none" paint-order="stroke fill markers" d=" M 528.0395436234688 1444.9031825626669 L 514.4268742068022 1451.709517271 L 528.0395436234688 1458.5158519793333 Z"/></g></g><g><g><rect fill="white" stroke="none" x="595.2851693876485" y="1476.2123222210002" width="127.94989265503906" height="21.23576429"/></g><text fill="black" stroke="none" font-family="sans-serif" font-size="11pt" font-style="normal" font-weight="normal" text-decoration="normal" x="597.7354498826485" y="1490.9140051910003" text-anchor="start" dominant-baseline="alphabetic" xml:space="preserve">Loads cluster state</text></g><g><path fill="none" stroke="black" paint-order="fill stroke markers" d=" M 514.4268742068022 1497.4480865110002 L 801.3708233402006 1497.4480865110002" stroke-miterlimit="10" stroke-width="1.3612669416666667" stroke-dasharray=""/><g transform="translate(804.0933572235339,1497.4480865110002) translate(-804.0933572235339,-1497.4480865110002)"><path fill="black" stroke="none" paint-order="stroke fill markers" d=" M 790.4806878068672 1490.641751802667 L 804.0933572235339 1497.4480865110002 L 790.4806878068672 1504.2544212193334 Z"/></g></g><g><g><rect fill="white" stroke="none" x="537.8406656034688" y="1521.9508914610003" width="242.83890022339844" height="21.23576429"/></g><text fill="black" stroke="none" font-family="sans-serif" font-size="11pt" font-style="normal" font-weight="normal" text-decoration="normal" x="540.2909460984688" y="1536.6525744310004" text-anchor="start" dominant-baseline="alphabetic" xml:space="preserve">Gets available OpenStack resources</text></g><g><path fill="none" stroke="black" paint-order="fill stroke markers" d=" M 514.4268742068022 1543.1866557510002 L 801.3708233402006 1543.1866557510002" stroke-miterlimit="10" stroke-width="1.3612669416666667" stroke-dasharray=""/><g transform="translate(804.0933572235339,1543.1866557510002) translate(-804.0933572235339,-1543.1866557510002)"><path fill="black" stroke="none" paint-order="stroke fill markers" d=" M 790.4806878068672 1536.380321042667 L 804.0933572235339 1543.1866557510002 L 790.4806878068672 1549.9929904593334 Z"/></g></g><g><g><rect fill="white" stroke="none" x="615.6645410307149" y="1567.6894607010004" width="87.19114936890625" height="21.23576429"/></g><text fill="black" stroke="none" font-family="sans-serif" font-size="11pt" font-style="normal" font-weight="normal" text-decoration="normal" x="618.1148215257149" y="1582.3911436710005" text-anchor="start" dominant-baseline="alphabetic" xml:space="preserve">Cluster state</text></g><g><path fill="none" stroke="black" paint-order="fill stroke markers" d=" M 804.0933572235339 1588.9252249910003 L 517.1494080901355 1588.9252249910003" stroke-miterlimit="10" stroke-width="1.3612669416666667" stroke-dasharray="6.53408132"/><g transform="translate(514.4268742068022,1588.9252249910003) translate(-514.4268742068022,-1588.9252249910003)"><path fill="black" stroke="none" paint-order="stroke fill markers" d=" M 528.0395436234688 1582.118890282667 L 514.4268742068022 1588.9252249910003 L 528.0395436234688 1595.7315596993335 Z"/></g></g><g><g><rect fill="white" stroke="none" x="554.6767480619649" y="1613.4280299410004" width="209.16673530640625" height="21.23576429"/></g><text fill="black" stroke="none" font-family="sans-serif" font-size="11pt" font-style="normal" font-weight="normal" text-decoration="normal" x="557.1270285569649" y="1628.1297129110005" text-anchor="start" dominant-baseline="alphabetic" xml:space="preserve">Available OpenStack resources</text></g><g><path fill="none" stroke="black" paint-order="fill stroke markers" d=" M 804.0933572235339 1634.6637942310003 L 517.1494080901355 1634.6637942310003" stroke-miterlimit="10" stroke-width="1.3612669416666667" stroke-dasharray="6.53408132"/><g transform="translate(514.4268742068022,1634.6637942310003) translate(-514.4268742068022,-1634.6637942310003)"><path fill="black" stroke="none" paint-order="stroke fill markers" d=" M 528.0395436234688 1627.857459522667 L 514.4268742068022 1634.6637942310003 L 528.0395436234688 1641.4701289393336 Z"/></g></g><g><g><rect fill="white" stroke="none" x="118.57135494083856" y="1659.1665991810005" width="302.3162714392187" height="21.23576429"/></g><text fill="black" stroke="none" font-family="sans-serif" font-size="11pt" font-style="normal" font-weight="normal" text-decoration="normal" x="121.02163543583856" y="1673.8682821510006" text-anchor="start" dominant-baseline="alphabetic" xml:space="preserve">Displays cluster state and available resources</text></g><g><path fill="none" stroke="black" paint-order="fill stroke markers" d=" M 498.0916709068021 1680.4023634710004 L 44.089844297427085 1680.4023634710004" stroke-miterlimit="10" stroke-width="1.3612669416666667" stroke-dasharray="6.53408132"/><g transform="translate(41.36731041409375,1680.4023634710004) translate(-41.36731041409375,-1680.4023634710004)"><path fill="black" stroke="none" paint-order="stroke fill markers" d=" M 54.97997983076042 1673.5960287626672 L 41.36731041409375 1680.4023634710004 L 54.97997983076042 1687.2086981793336 Z"/></g></g><g><g><rect fill="white" stroke="none" x="961.7897391709816" y="1704.9051684210006" width="149.11668647828125" height="21.23576429"/></g><text fill="black" stroke="none" font-family="sans-serif" font-size="11pt" font-style="normal" font-weight="normal" text-decoration="normal" x="964.2400196659817" y="1719.6068513910006" text-anchor="start" dominant-baseline="alphabetic" xml:space="preserve">Polls JupyterHub URL</text></g><g><path fill="none" stroke="black" paint-order="fill stroke markers" d=" M 812.2609588735339 1726.1409327110005 L 1257.7126720633773 1726.1409327110005" stroke-miterlimit="10" stroke-width="1.3612669416666667" stroke-dasharray=""/><g transform="translate(1260.4352059467108,1726.1409327110005) translate(-1260.4352059467108,-1726.1409327110005)"><path fill="black" stroke="none" paint-order="stroke fill markers" d=" M 1246.822536530044 1719.3345980026672 L 1260.4352059467108 1726.1409327110005 L 1246.822536530044 1732.9472674193337 Z"/></g></g><g><g><rect fill="white" stroke="none" x="970.7410560044777" y="1750.6437376610006" width="131.21405281128906" height="21.23576429"/></g><text fill="black" stroke="none" font-family="sans-serif" font-size="11pt" font-style="normal" font-weight="normal" text-decoration="normal" x="973.1913364994778" y="1765.3454206310007" text-anchor="start" dominant-baseline="alphabetic" xml:space="preserve">Connection timeout</text></g><g><path fill="none" stroke="black" paint-order="fill stroke markers" d=" M 1260.4352059467108 1771.8795019510005 L 814.9834927568672 1771.8795019510005" stroke-miterlimit="10" stroke-width="1.3612669416666667" stroke-dasharray="6.53408132"/><g transform="translate(812.2609588735339,1771.8795019510005) translate(-812.2609588735339,-1771.8795019510005)"><path fill="black" stroke="none" paint-order="stroke fill markers" d=" M 825.8736282902006 1765.0731672426673 L 812.2609588735339 1771.8795019510005 L 825.8736282902006 1778.6858366593337 Z"/></g></g><g><g><rect fill="white" stroke="none" x="972.9314704331887" y="1796.3823069010007" width="126.83322395386719" height="21.23576429"/></g><text fill="black" stroke="none" font-family="sans-serif" font-size="11pt" font-style="normal" font-weight="normal" text-decoration="normal" x="975.3817509281887" y="1811.0839898710008" text-anchor="start" dominant-baseline="alphabetic" xml:space="preserve">Polls FreeIPA URL</text></g><g><path fill="none" stroke="black" paint-order="fill stroke markers" d=" M 812.2609588735339 1817.6180711910006 L 1257.7126720633773 1817.6180711910006" stroke-miterlimit="10" stroke-width="1.3612669416666667" stroke-dasharray=""/><g transform="translate(1260.4352059467108,1817.6180711910006) translate(-1260.4352059467108,-1817.6180711910006)"><path fill="black" stroke="none" paint-order="stroke fill markers" d=" M 1246.822536530044 1810.8117364826674 L 1260.4352059467108 1817.6180711910006 L 1246.822536530044 1824.4244058993338 Z"/></g></g><g><g><rect fill="white" stroke="none" x="970.7410560044777" y="1842.1208761410007" width="131.21405281128906" height="21.23576429"/></g><text fill="black" stroke="none" font-family="sans-serif" font-size="11pt" font-style="normal" font-weight="normal" text-decoration="normal" x="973.1913364994778" y="1856.8225591110008" text-anchor="start" dominant-baseline="alphabetic" xml:space="preserve">Connection timeout</text></g><g><path fill="none" stroke="black" paint-order="fill stroke markers" d=" M 1260.4352059467108 1863.3566404310006 L 814.9834927568672 1863.3566404310006" stroke-miterlimit="10" stroke-width="1.3612669416666667" stroke-dasharray="6.53408132"/><g transform="translate(812.2609588735339,1863.3566404310006) translate(-812.2609588735339,-1863.3566404310006)"><path fill="black" stroke="none" paint-order="stroke fill markers" d=" M 825.8736282902006 1856.5503057226674 L 812.2609588735339 1863.3566404310006 L 825.8736282902006 1870.1629751393339 Z"/></g></g><g><g><rect fill="white" stroke="none" x="619.3295419462422" y="1887.8594453810008" width="79.86114753785156" height="21.23576429"/></g><text fill="black" stroke="none" font-family="sans-serif" font-size="11pt" font-style="normal" font-weight="normal" text-decoration="normal" x="621.7798224412422" y="1902.561128351001" text-anchor="start" dominant-baseline="alphabetic" xml:space="preserve">Polls status</text></g><g><path fill="none" stroke="black" paint-order="fill stroke markers" d=" M 514.4268742068022 1909.0952096710007 L 801.3708233402006 1909.0952096710007" stroke-miterlimit="10" stroke-width="1.3612669416666667" stroke-dasharray=""/><g transform="translate(804.0933572235339,1909.0952096710007) translate(-804.0933572235339,-1909.0952096710007)"><path fill="black" stroke="none" paint-order="stroke fill markers" d=" M 790.4806878068672 1902.2888749626675 L 804.0933572235339 1909.0952096710007 L 790.4806878068672 1915.901544379334 Z"/></g></g><g><g><rect fill="white" stroke="none" x="564.31167390425" y="1933.5980146210009" width="189.89688362183594" height="21.23576429"/></g><text fill="black" stroke="none" font-family="sans-serif" font-size="11pt" font-style="normal" font-weight="normal" text-decoration="normal" x="566.76195439925" y="1948.299697591001" text-anchor="start" dominant-baseline="alphabetic" xml:space="preserve">Status: provisioning_running</text></g><g><path fill="none" stroke="black" paint-order="fill stroke markers" d=" M 804.0933572235339 1954.8337789110008 L 517.1494080901355 1954.8337789110008" stroke-miterlimit="10" stroke-width="1.3612669416666667" stroke-dasharray="6.53408132"/><g transform="translate(514.4268742068022,1954.8337789110008) translate(-514.4268742068022,-1954.8337789110008)"><path fill="black" stroke="none" paint-order="stroke fill markers" d=" M 528.0395436234688 1948.0274442026675 L 514.4268742068022 1954.8337789110008 L 528.0395436234688 1961.640113619334 Z"/></g></g><g><g><rect fill="white" stroke="none" x="961.7897391709816" y="1979.336583861001" width="149.11668647828125" height="21.23576429"/></g><text fill="black" stroke="none" font-family="sans-serif" font-size="11pt" font-style="normal" font-weight="normal" text-decoration="normal" x="964.2400196659817" y="1994.038266831001" text-anchor="start" dominant-baseline="alphabetic" xml:space="preserve">Polls JupyterHub URL</text></g><g><path fill="none" stroke="black" paint-order="fill stroke markers" d=" M 812.2609588735339 2000.5723481510008 L 1257.7126720633773 2000.5723481510008" stroke-miterlimit="10" stroke-width="1.3612669416666667" stroke-dasharray=""/><g transform="translate(1260.4352059467108,2000.5723481510008) translate(-1260.4352059467108,-2000.5723481510008)"><path fill="black" stroke="none" paint-order="stroke fill markers" d=" M 1246.822536530044 1993.7660134426676 L 1260.4352059467108 2000.5723481510008 L 1246.822536530044 2007.378682859334 Z"/></g></g><g><g><rect fill="white" stroke="none" x="982.144063511802" y="2025.075153101001" width="108.40803779664063" height="21.23576429"/></g><text fill="black" stroke="none" font-family="sans-serif" font-size="11pt" font-style="normal" font-weight="normal" text-decoration="normal" x="984.594344006802" y="2039.776836071001" text-anchor="start" dominant-baseline="alphabetic" xml:space="preserve">200 status code</text></g><g><path fill="none" stroke="black" paint-order="fill stroke markers" d=" M 1260.4352059467108 2046.3109173910009 L 814.9834927568672 2046.3109173910009" stroke-miterlimit="10" stroke-width="1.3612669416666667" stroke-dasharray="6.53408132"/><g transform="translate(812.2609588735339,2046.3109173910009) translate(-812.2609588735339,-2046.3109173910009)"><path fill="black" stroke="none" paint-order="stroke fill markers" d=" M 825.8736282902006 2039.5045826826677 L 812.2609588735339 2046.3109173910009 L 825.8736282902006 2053.117252099334 Z"/></g></g><g><g><rect fill="white" stroke="none" x="972.9314704331887" y="2070.813722341001" width="126.83322395386719" height="21.23576429"/></g><text fill="black" stroke="none" font-family="sans-serif" font-size="11pt" font-style="normal" font-weight="normal" text-decoration="normal" x="975.3817509281887" y="2085.515405311001" text-anchor="start" dominant-baseline="alphabetic" xml:space="preserve">Polls FreeIPA URL</text></g><g><path fill="none" stroke="black" paint-order="fill stroke markers" d=" M 812.2609588735339 2092.049486631001 L 1257.7126720633773 2092.049486631001" stroke-miterlimit="10" stroke-width="1.3612669416666667" stroke-dasharray=""/><g transform="translate(1260.4352059467108,2092.049486631001) translate(-1260.4352059467108,-2092.049486631001)"><path fill="black" stroke="none" paint-order="stroke fill markers" d=" M 1246.822536530044 2085.2431519226675 L 1260.4352059467108 2092.049486631001 L 1246.822536530044 2098.8558213393344 Z"/></g></g><g><g><rect fill="white" stroke="none" x="982.144063511802" y="2116.5522915810006" width="108.40803779664063" height="21.23576429"/></g><text fill="black" stroke="none" font-family="sans-serif" font-size="11pt" font-style="normal" font-weight="normal" text-decoration="normal" x="984.594344006802" y="2131.2539745510007" text-anchor="start" dominant-baseline="alphabetic" xml:space="preserve">200 status code</text></g><g><path fill="none" stroke="black" paint-order="fill stroke markers" d=" M 1260.4352059467108 2137.788055871001 L 814.9834927568672 2137.788055871001" stroke-miterlimit="10" stroke-width="1.3612669416666667" stroke-dasharray="6.53408132"/><g transform="translate(812.2609588735339,2137.788055871001) translate(-812.2609588735339,-2137.788055871001)"><path fill="black" stroke="none" paint-order="stroke fill markers" d=" M 825.8736282902006 2130.9817211626673 L 812.2609588735339 2137.788055871001 L 825.8736282902006 2144.5943905793342 Z"/></g></g><g><g><rect fill="white" stroke="none" x="615.2457411212422" y="2162.2908608210005" width="79.86114753785156" height="21.23576429"/></g><text fill="black" stroke="none" font-family="sans-serif" font-size="11pt" font-style="normal" font-weight="normal" text-decoration="normal" x="617.6960216162422" y="2176.9925437910006" text-anchor="start" dominant-baseline="alphabetic" xml:space="preserve">Polls status</text></g><g><path fill="none" stroke="black" paint-order="fill stroke markers" d=" M 514.4268742068022 2183.5266251110006 L 793.2032216902005 2183.5266251110006" stroke-miterlimit="10" stroke-width="1.3612669416666667" stroke-dasharray=""/><g transform="translate(795.9257555735338,2183.5266251110006) translate(-795.9257555735338,-2183.5266251110006)"><path fill="black" stroke="none" paint-order="stroke fill markers" d=" M 782.3130861568671 2176.720290402667 L 795.9257555735338 2183.5266251110006 L 782.3130861568671 2190.332959819334 Z"/></g></g><g><g><rect fill="white" stroke="none" x="558.202108613918" y="2208.0294300610003" width="193.9484125525" height="21.23576429"/></g><text fill="black" stroke="none" font-family="sans-serif" font-size="11pt" font-style="normal" font-weight="normal" text-decoration="normal" x="560.652389108918" y="2222.7311130310004" text-anchor="start" dominant-baseline="alphabetic" xml:space="preserve">Status: provisioning_success</text></g><g><path fill="none" stroke="black" paint-order="fill stroke markers" d=" M 795.9257555735338 2229.2651943510004 L 517.1494080901355 2229.2651943510004" stroke-miterlimit="10" stroke-width="1.3612669416666667" stroke-dasharray="6.53408132"/><g transform="translate(514.4268742068022,2229.2651943510004) translate(-514.4268742068022,-2229.2651943510004)"><path fill="black" stroke="none" paint-order="stroke fill markers" d=" M 528.0395436234688 2222.458859642667 L 514.4268742068022 2229.2651943510004 L 528.0395436234688 2236.071529059334 Z"/></g></g><g><g><rect fill="white" stroke="none" x="189.4660845550964" y="2253.767999301" width="160.52681221070313" height="21.23576429"/></g><text fill="black" stroke="none" font-family="sans-serif" font-size="11pt" font-style="normal" font-weight="normal" text-decoration="normal" x="191.91636505009637" y="2268.4696822710002" text-anchor="start" dominant-baseline="alphabetic" xml:space="preserve">Displays success dialog</text></g><g><path fill="none" stroke="black" paint-order="fill stroke markers" d=" M 498.0916709068021 2275.0037635910003 L 44.089844297427085 2275.0037635910003" stroke-miterlimit="10" stroke-width="1.3612669416666667" stroke-dasharray="6.53408132"/><g transform="translate(41.36731041409375,2275.0037635910003) translate(-41.36731041409375,-2275.0037635910003)"><path fill="black" stroke="none" paint-order="stroke fill markers" d=" M 54.97997983076042 2268.197428882667 L 41.36731041409375 2275.0037635910003 L 54.97997983076042 2281.8100982993337 Z"/></g></g></g><g/><g/><g/><g/><g/></g></svg>