<svg version="1.1" xmlns="http://www.w3.org/2000/svg" xmlns:xlink="http://www.w3.org/1999/xlink" width="1195" height="2216"><defs/><g><g/><g/><g/><g/><g/><g/><g/><g/><g/><g/><g/><g/><g/><g/><g/><g/><g/><g/><g/><g/><g/><g/><g/><g/><g/><g/><g/><g/><g/><g/><g/><g/><g/><g/><g/><g/><g/><g/><g/><g/><g/><g/><g/><g/><g><rect fill="white" stroke="none" x="0" y="0" width="1195" height="2216"/></g><g><text fill="black" stroke="none" font-family="sans-serif" font-size="16.5pt" font-style="normal" font-weight="normal" text-decoration="normal" x="420.0490429226386" y="24.50280495" text-anchor="start" dominant-baseline="alphabetic" xml:space="preserve">MC Hub - Cluster Creation Workflow</text></g><g/><g><path fill="none" stroke="black" paint-order="fill stroke markers" d=" M 41.36731041409375 95.887643371 L 41.36731041409375 2216.1970317110004" stroke-miterlimit="10" stroke-width="1.3612669416666667" stroke-dasharray="12.565541,5.445067766666667"/><path fill="none" stroke="black" paint-order="fill stroke markers" d=" M 390.51116464664585 95.887643371 L 390.51116464664585 2216.1970317110004" stroke-miterlimit="10" stroke-width="1.3612669416666667" stroke-dasharray="12.565541,5.445067766666667"/><path fill="none" stroke="black" paint-order="fill stroke markers" d=" M 688.3452493133776 95.887643371 L 688.3452493133776 2216.1970317110004" stroke-miterlimit="10" stroke-width="1.3612669416666667" stroke-dasharray="12.565541,5.445067766666667"/><path fill="none" stroke="black" paint-order="fill stroke markers" d=" M 1036.1172160425442 95.887643371 L 1036.1172160425442 2216.1970317110004" stroke-miterlimit="10" stroke-width="1.3612669416666667" stroke-dasharray="12.565541,5.445067766666667"/><path fill="none" stroke="black" paint-order="fill stroke markers" d=" M 1146.3407531533514 95.887643371 L 1146.3407531533514 2216.1970317110004" stroke-miterlimit="10" stroke-width="1.3612669416666667" stroke-dasharray="12.565541,5.445067766666667"/></g><g><path fill="none" stroke="none"/><g><path fill="white" stroke="black" paint-order="fill stroke markers" d=" M 8.167601650000002 51.782594461 L 74.56701917818751 51.782594461 L 74.56701917818751 95.887643371 L 8.167601650000002 95.887643371 L 8.167601650000002 51.782594461 Z" stroke-miterlimit="10" stroke-width="2.613632528" stroke-dasharray=""/></g><g><g/><text fill="black" stroke="none" font-family="sans-serif" font-size="11pt" font-style="normal" font-weight="normal" text-decoration="normal" x="25.8912972305" y="79.55244007099999" text-anchor="start" dominant-baseline="alphabetic" xml:space="preserve">User</text></g><path fill="none" stroke="none"/><g><path fill="white" stroke="black" paint-order="fill stroke markers" d=" M 345.90487781858724 51.782594461 L 435.11745147470447 51.782594461 L 435.11745147470447 95.887643371 L 345.90487781858724 95.887643371 L 345.90487781858724 51.782594461 Z" stroke-miterlimit="10" stroke-width="2.613632528" stroke-dasharray=""/></g><g><g/><text fill="black" stroke="none" font-family="sans-serif" font-size="11pt" font-style="normal" font-weight="normal" text-decoration="normal" x="363.62857339908726" y="79.55244007099999" text-anchor="start" dominant-baseline="alphabetic" xml:space="preserve">Browser</text></g><path fill="none" stroke="none"/><g><path fill="white" stroke="black" paint-order="fill stroke markers" d=" M 629.4834235448893 51.782594461 L 747.2070750818659 51.782594461 L 747.2070750818659 95.887643371 L 629.4834235448893 95.887643371 L 629.4834235448893 51.782594461 Z" stroke-miterlimit="10" stroke-width="2.613632528" stroke-dasharray=""/></g><g><g/><text fill="black" stroke="none" font-family="sans-serif" font-size="11pt" font-style="normal" font-weight="normal" text-decoration="normal" x="647.2071191253893" y="79.55244007099999" text-anchor="start" dominant-baseline="alphabetic" xml:space="preserve">Flask Server</text></g><path fill="none" stroke="none"/><g><path fill="white" stroke="black" paint-order="fill stroke markers" d=" M 987.03348170472 51.782594461 L 1085.2009503803683 51.782594461 L 1085.2009503803683 95.887643371 L 987.03348170472 95.887643371 L 987.03348170472 51.782594461 Z" stroke-miterlimit="10" stroke-width="2.613632528" stroke-dasharray=""/></g><g><g/><text fill="black" stroke="none" font-family="sans-serif" font-size="11pt" font-style="normal" font-weight="normal" text-decoration="normal" x="1004.75717728522" y="79.55244007099999" text-anchor="start" dominant-baseline="alphabetic" xml:space="preserve">Terraform</text></g><path fill="none" stroke="none"/><g><path fill="white" stroke="black" paint-order="fill stroke markers" d=" M 1105.3994596114258 51.782594461 L 1187.2820466952774 51.782594461 L 1187.2820466952774 95.887643371 L 1105.3994596114258 95.887643371 L 1105.3994596114258 51.782594461 Z" stroke-miterlimit="10" stroke-width="2.613632528" stroke-dasharray=""/></g><g><g/><text fill="black" stroke="none" font-family="sans-serif" font-size="11pt" font-style="normal" font-weight="normal" text-decoration="normal" x="1123.1231551919257" y="79.55244007099999" text-anchor="start" dominant-baseline="alphabetic" xml:space="preserve">Cluster</text></g></g><g><path fill="white" stroke="black" paint-order="fill stroke markers" d=" M 382.34356299664586 149.793814261 L 398.67876629664585 149.793814261 L 398.67876629664585 2199.8618284110003 L 382.34356299664586 2199.8618284110003 L 382.34356299664586 149.793814261" stroke-miterlimit="10" stroke-width="1.3612669416666667" stroke-dasharray=""/><path fill="white" stroke="black" paint-order="fill stroke markers" d=" M 680.1776476633776 195.532383501 L 696.5128509633777 195.532383501 L 696.5128509633777 241.270952741 L 680.1776476633776 241.270952741 L 680.1776476633776 195.532383501" stroke-miterlimit="10" stroke-width="1.3612669416666667" stroke-dasharray=""/><path fill="white" stroke="black" paint-order="fill stroke markers" d=" M 680.1776476633776 332.748091221 L 696.5128509633777 332.748091221 L 696.5128509633777 378.486660461 L 680.1776476633776 378.486660461 L 680.1776476633776 332.748091221" stroke-miterlimit="10" stroke-width="1.3612669416666667" stroke-dasharray=""/><path fill="white" stroke="black" paint-order="fill stroke markers" d=" M 680.1776476633776 607.1795066609999 L 696.5128509633777 607.1795066609999 L 696.5128509633777 924.0824506809996 L 680.1776476633776 924.0824506809996 L 680.1776476633776 607.1795066609999" stroke-miterlimit="10" stroke-width="1.3612669416666667" stroke-dasharray=""/><path fill="white" stroke="black" paint-order="fill stroke markers" d=" M 1027.9496143925442 786.8667429609998 L 1044.2848176925443 786.8667429609998 L 1044.2848176925443 878.3438814409997 L 1027.9496143925442 878.3438814409997 L 1027.9496143925442 786.8667429609998" stroke-miterlimit="10" stroke-width="1.3612669416666667" stroke-dasharray=""/><path fill="white" stroke="black" paint-order="fill stroke markers" d=" M 680.1776476633776 1061.2981584009995 L 696.5128509633777 1061.2981584009995 L 696.5128509633777 2021.8081124410007 L 680.1776476633776 2021.8081124410007 L 680.1776476633776 1061.2981584009995" stroke-miterlimit="10" stroke-width="1.3612669416666667" stroke-dasharray=""/><path fill="white" stroke="black" paint-order="fill stroke markers" d=" M 1027.9496143925442 1107.0367276409995 L 1044.2848176925443 1107.0367276409995 L 1044.2848176925443 1244.2524353609997 L 1027.9496143925442 1244.2524353609997 L 1027.9496143925442 1107.0367276409995" stroke-miterlimit="10" stroke-width="1.3612669416666667" stroke-dasharray=""/><path fill="white" stroke="black" paint-order="fill stroke markers" d=" M 688.3452493133776 1152.7752968809996 L 704.6804526133777 1152.7752968809996 L 704.6804526133777 1198.5138661209996 L 688.3452493133776 1198.5138661209996 L 688.3452493133776 1152.7752968809996" stroke-miterlimit="10" stroke-width="1.3612669416666667" stroke-dasharray=""/><path fill="white" stroke="black" paint-order="fill stroke markers" d=" M 688.3452493133776 1289.9910046009998 L 704.6804526133777 1289.9910046009998 L 704.6804526133777 1335.7295738409998 L 688.3452493133776 1335.7295738409998 L 688.3452493133776 1289.9910046009998" stroke-miterlimit="10" stroke-width="1.3612669416666667" stroke-dasharray=""/><path fill="white" stroke="black" paint-order="fill stroke markers" d=" M 688.3452493133776 1381.4681430809999 L 704.6804526133777 1381.4681430809999 L 704.6804526133777 1518.683850801 L 688.3452493133776 1518.683850801 L 688.3452493133776 1381.4681430809999" stroke-miterlimit="10" stroke-width="1.3612669416666667" stroke-dasharray=""/><path fill="white" stroke="black" paint-order="fill stroke markers" d=" M 1138.1731515033514 1610.1609892810002 L 1154.5083548033515 1610.1609892810002 L 1154.5083548033515 1655.8995585210002 L 1138.1731515033514 1655.8995585210002 L 1138.1731515033514 1610.1609892810002" stroke-miterlimit="10" stroke-width="1.3612669416666667" stroke-dasharray=""/><path fill="white" stroke="black" paint-order="fill stroke markers" d=" M 1138.1731515033514 1701.6381277610003 L 1154.5083548033515 1701.6381277610003 L 1154.5083548033515 1747.3766970010004 L 1138.1731515033514 1747.3766970010004 L 1138.1731515033514 1701.6381277610003" stroke-miterlimit="10" stroke-width="1.3612669416666667" stroke-dasharray=""/><path fill="white" stroke="black" paint-order="fill stroke markers" d=" M 688.3452493133776 1793.1152662410004 L 704.6804526133777 1793.1152662410004 L 704.6804526133777 1838.8538354810005 L 688.3452493133776 1838.8538354810005 L 688.3452493133776 1793.1152662410004" stroke-miterlimit="10" stroke-width="1.3612669416666667" stroke-dasharray=""/><path fill="white" stroke="black" paint-order="fill stroke markers" d=" M 1138.1731515033514 1884.5924047210005 L 1154.5083548033515 1884.5924047210005 L 1154.5083548033515 1930.3309739610006 L 1138.1731515033514 1930.3309739610006 L 1138.1731515033514 1884.5924047210005" stroke-miterlimit="10" stroke-width="1.3612669416666667" stroke-dasharray=""/><path fill="white" stroke="black" paint-order="fill stroke markers" d=" M 1138.1731515033514 1976.0695432010007 L 1154.5083548033515 1976.0695432010007 L 1154.5083548033515 2021.8081124410007 L 1138.1731515033514 2021.8081124410007 L 1138.1731515033514 1976.0695432010007" stroke-miterlimit="10" stroke-width="1.3612669416666667" stroke-dasharray=""/><path fill="white" stroke="black" paint-order="fill stroke markers" d=" M 680.1776476633776 2067.546681681001 L 696.5128509633777 2067.546681681001 L 696.5128509633777 2113.2852509210006 L 680.1776476633776 2113.2852509210006 L 680.1776476633776 2067.546681681001" stroke-miterlimit="10" stroke-width="1.3612669416666667" stroke-dasharray=""/><g><g><rect fill="white" stroke="none" x="72.91273982853387" y="128.558049971" width="277.88539375367185" height="21.23576429"/></g><text fill="black" stroke="none" font-family="sans-serif" font-size="11pt" font-style="normal" font-weight="normal" text-decoration="normal" x="75.36302032353387" y="143.259732941" text-anchor="start" dominant-baseline="alphabetic" xml:space="preserve">Navigates to localhost:5000/create-cluster</text></g><g><path fill="none" stroke="black" paint-order="fill stroke markers" d=" M 41.36731041409375 149.793814261 L 379.62102911331255 149.793814261" stroke-miterlimit="10" stroke-width="1.3612669416666667" stroke-dasharray=""/><g transform="translate(382.34356299664586,149.793814261) translate(-382.34356299664586,-149.793814261)"><path fill="black" stroke="none" paint-order="stroke fill markers" d=" M 368.7308935799792 142.98747955266666 L 382.34356299664586 149.793814261 L 368.7308935799792 156.60014896933333 Z"/></g></g><g><g><rect fill="white" stroke="none" x="437.5756819171406" y="174.296619211" width="203.7050501257422" height="21.23576429"/></g><text fill="black" stroke="none" font-family="sans-serif" font-size="11pt" font-style="normal" font-weight="normal" text-decoration="normal" x="440.02596241214064" y="188.99830218099999" text-anchor="start" dominant-baseline="alphabetic" xml:space="preserve">Requests cluster creation form</text></g><g><path fill="none" stroke="black" paint-order="fill stroke markers" d=" M 398.67876629664585 195.532383501 L 677.4551137800443 195.532383501" stroke-miterlimit="10" stroke-width="1.3612669416666667" stroke-dasharray=""/><g transform="translate(680.1776476633776,195.532383501) translate(-680.1776476633776,-195.532383501)"><path fill="black" stroke="none" paint-order="stroke fill markers" d=" M 666.5649782467109 188.72604879266666 L 680.1776476633776 195.532383501 L 666.5649782467109 202.33871820933334 Z"/></g></g><g><g><rect fill="white" stroke="none" x="468.950041048" y="220.035188451" width="140.95633186402344" height="21.23576429"/></g><text fill="black" stroke="none" font-family="sans-serif" font-size="11pt" font-style="normal" font-weight="normal" text-decoration="normal" x="471.400321543" y="234.736871421" text-anchor="start" dominant-baseline="alphabetic" xml:space="preserve">Cluster creation form</text></g><g><path fill="none" stroke="black" paint-order="fill stroke markers" d=" M 680.1776476633776 241.270952741 L 401.40130017997916 241.270952741" stroke-miterlimit="10" stroke-width="1.3612669416666667" stroke-dasharray="6.53408132"/><g transform="translate(398.67876629664585,241.270952741) translate(-398.67876629664585,-241.270952741)"><path fill="black" stroke="none" paint-order="stroke fill markers" d=" M 412.2914357133125 234.46461803266666 L 398.67876629664585 241.270952741 L 412.2914357133125 248.07728744933334 Z"/></g></g><g><g><rect fill="white" stroke="none" x="113.27063472599481" y="265.77375769099996" width="197.16960395875" height="21.23576429"/></g><text fill="black" stroke="none" font-family="sans-serif" font-size="11pt" font-style="normal" font-weight="normal" text-decoration="normal" x="115.72091522099481" y="280.47544066099994" text-anchor="start" dominant-baseline="alphabetic" xml:space="preserve">Displays cluster creation form</text></g><g><path fill="none" stroke="black" paint-order="fill stroke markers" d=" M 382.34356299664586 287.009521981 L 44.089844297427085 287.009521981" stroke-miterlimit="10" stroke-width="1.3612669416666667" stroke-dasharray="6.53408132"/><g transform="translate(41.36731041409375,287.009521981) translate(-41.36731041409375,-287.009521981)"><path fill="black" stroke="none" paint-order="stroke fill markers" d=" M 54.97997983076042 280.20318727266664 L 41.36731041409375 287.009521981 L 54.97997983076042 293.8158566893333 Z"/></g></g><g><g><rect fill="white" stroke="none" x="418.0087568683125" y="311.51232693099996" width="242.83890022339844" height="21.23576429"/></g><text fill="black" stroke="none" font-family="sans-serif" font-size="11pt" font-style="normal" font-weight="normal" text-decoration="normal" x="420.4590373633125" y="326.21400990099994" text-anchor="start" dominant-baseline="alphabetic" xml:space="preserve">Gets available OpenStack resources</text></g><g><path fill="none" stroke="black" paint-order="fill stroke markers" d=" M 398.67876629664585 332.748091221 L 677.4551137800443 332.748091221" stroke-miterlimit="10" stroke-width="1.3612669416666667" stroke-dasharray=""/><g transform="translate(680.1776476633776,332.748091221) translate(-680.1776476633776,-332.748091221)"><path fill="black" stroke="none" paint-order="stroke fill markers" d=" M 666.5649782467109 325.94175651266664 L 680.1776476633776 332.748091221 L 666.5649782467109 339.5544259293333 Z"/></g></g><g><g><rect fill="white" stroke="none" x="434.8448393268086" y="357.25089617099997" width="209.16673530640625" height="21.23576429"/></g><text fill="black" stroke="none" font-family="sans-serif" font-size="11pt" font-style="normal" font-weight="normal" text-decoration="normal" x="437.2951198218086" y="371.95257914099994" text-anchor="start" dominant-baseline="alphabetic" xml:space="preserve">Available OpenStack resources</text></g><g><path fill="none" stroke="black" paint-order="fill stroke markers" d=" M 680.1776476633776 378.486660461 L 401.40130017997916 378.486660461" stroke-miterlimit="10" stroke-width="1.3612669416666667" stroke-dasharray="6.53408132"/><g transform="translate(398.67876629664585,378.486660461) translate(-398.67876629664585,-378.486660461)"><path fill="black" stroke="none" paint-order="stroke fill markers" d=" M 412.2914357133125 371.68032575266665 L 398.67876629664585 378.486660461 L 412.2914357133125 385.2929951693333 Z"/></g></g><g><g><rect fill="white" stroke="none" x="85.14608486027215" y="402.98946541099997" width="253.41870369019531" height="21.23576429"/></g><text fill="black" stroke="none" font-family="sans-serif" font-size="11pt" font-style="normal" font-weight="normal" text-decoration="normal" x="87.59636535527216" y="417.69114838099995" text-anchor="start" dominant-baseline="alphabetic" xml:space="preserve">Updates form with available resources</text></g><g><path fill="none" stroke="black" paint-order="fill stroke markers" d=" M 382.34356299664586 424.225229701 L 44.089844297427085 424.225229701" stroke-miterlimit="10" stroke-width="1.3612669416666667" stroke-dasharray="6.53408132"/><g transform="translate(41.36731041409375,424.225229701) translate(-41.36731041409375,-424.225229701)"><path fill="black" stroke="none" paint-order="stroke fill markers" d=" M 54.97997983076042 417.41889499266665 L 41.36731041409375 424.225229701 L 54.97997983076042 431.0315644093333 Z"/></g></g><g><g><rect fill="white" stroke="none" x="159.71297939152217" y="448.728034651" width="104.28491462769531" height="21.23576429"/></g><text fill="black" stroke="none" font-family="sans-serif" font-size="11pt" font-style="normal" font-weight="normal" text-decoration="normal" x="162.16325988652216" y="463.42971762099995" text-anchor="start" dominant-baseline="alphabetic" xml:space="preserve">Fills in the form</text></g><g><path fill="none" stroke="black" paint-order="fill stroke markers" d=" M 41.36731041409375 469.963798941 L 379.62102911331255 469.963798941" stroke-miterlimit="10" stroke-width="1.3612669416666667" stroke-dasharray=""/><g transform="translate(382.34356299664586,469.963798941) translate(-382.34356299664586,-469.963798941)"><path fill="black" stroke="none" paint-order="stroke fill markers" d=" M 368.7308935799792 463.15746423266665 L 382.34356299664586 469.963798941 L 368.7308935799792 476.77013364933333 Z"/></g></g><g><g><rect fill="white" stroke="none" x="119.45171840519403" y="494.466603891" width="184.80743660035156" height="21.23576429"/></g><text fill="black" stroke="none" font-family="sans-serif" font-size="11pt" font-style="normal" font-weight="normal" text-decoration="normal" x="121.90199890019403" y="509.16828686099996" text-anchor="start" dominant-baseline="alphabetic" xml:space="preserve">Clicks on the "Apply" button</text></g><g><path fill="none" stroke="black" paint-order="fill stroke markers" d=" M 41.36731041409375 515.702368181 L 379.62102911331255 515.702368181" stroke-miterlimit="10" stroke-width="1.3612669416666667" stroke-dasharray=""/><g transform="translate(382.34356299664586,515.702368181) translate(-382.34356299664586,-515.702368181)"><path fill="black" stroke="none" paint-order="stroke fill markers" d=" M 368.7308935799792 508.89603347266666 L 382.34356299664586 515.702368181 L 368.7308935799792 522.5087028893333 Z"/></g></g><g><g><rect fill="white" stroke="none" x="122.2112093719909" y="540.2051731309999" width="179.28845466675781" height="21.23576429"/></g><text fill="black" stroke="none" font-family="sans-serif" font-size="11pt" font-style="normal" font-weight="normal" text-decoration="normal" x="124.6614898669909" y="554.9068561009999" text-anchor="start" dominant-baseline="alphabetic" xml:space="preserve">Displays loading animation</text></g><g><path fill="none" stroke="black" paint-order="fill stroke markers" d=" M 382.34356299664586 561.440937421 L 44.089844297427085 561.440937421" stroke-miterlimit="10" stroke-width="1.3612669416666667" stroke-dasharray="6.53408132"/><g transform="translate(41.36731041409375,561.440937421) translate(-41.36731041409375,-561.440937421)"><path fill="black" stroke="none" paint-order="stroke fill markers" d=" M 54.97997983076042 554.6346027126666 L 41.36731041409375 561.440937421 L 54.97997983076042 568.2472721293333 Z"/></g></g><g><g><rect fill="white" stroke="none" x="461.1905500812031" y="585.9437423709999" width="156.4753137976172" height="21.23576429"/></g><text fill="black" stroke="none" font-family="sans-serif" font-size="11pt" font-style="normal" font-weight="normal" text-decoration="normal" x="463.64083057620314" y="600.6454253409999" text-anchor="start" dominant-baseline="alphabetic" xml:space="preserve">Sends the form content</text></g><g><path fill="none" stroke="black" paint-order="fill stroke markers" d=" M 398.67876629664585 607.1795066609999 L 677.4551137800443 607.1795066609999" stroke-miterlimit="10" stroke-width="1.3612669416666667" stroke-dasharray=""/><g transform="translate(680.1776476633776,607.1795066609999) translate(-680.1776476633776,-607.1795066609999)"><path fill="black" stroke="none" paint-order="stroke fill markers" d=" M 666.5649782467109 600.3731719526666 L 680.1776476633776 607.1795066609999 L 666.5649782467109 613.9858413693332 Z"/></g></g><g><g><rect fill="white" stroke="none" x="715.8428415350444" y="631.6823116109998" width="279.5031610876562" height="21.23576429"/></g><text fill="black" stroke="none" font-family="sans-serif" font-size="11pt" font-style="normal" font-weight="normal" text-decoration="normal" x="718.2931220300444" y="646.3839945809998" text-anchor="start" dominant-baseline="alphabetic" xml:space="preserve">Creates a folder with the cluster hostname</text></g><g><path fill="none" stroke="black" paint-order="fill stroke markers" d=" M 696.5128509633777 652.9180759009998 L 761.8536641633776 652.9180759009998 L 761.8536641633776 674.1538401909999 L 699.235384846711 674.1538401909999" stroke-miterlimit="10" stroke-width="1.3612669416666667" stroke-dasharray=""/><g transform="translate(696.5128509633777,674.1538401909999) translate(-696.5128509633777,-674.1538401909999)"><path fill="black" stroke="none" paint-order="stroke fill markers" d=" M 710.1255203800443 667.3475054826665 L 696.5128509633777 674.1538401909999 L 710.1255203800443 680.9601748993332 Z"/></g></g><g><g><rect fill="white" stroke="none" x="715.8428415350444" y="698.6566451409998" width="298.2218500525" height="21.23576429"/></g><text fill="black" stroke="none" font-family="sans-serif" font-size="11pt" font-style="normal" font-weight="normal" text-decoration="normal" x="718.2931220300444" y="713.3583281109998" text-anchor="start" dominant-baseline="alphabetic" xml:space="preserve">main.tf.json is created with the form variables</text></g><g><path fill="none" stroke="black" paint-order="fill stroke markers" d=" M 696.5128509633777 719.8924094309998 L 761.8536641633776 719.8924094309998 L 761.8536641633776 741.1281737209998 L 699.235384846711 741.1281737209998" stroke-miterlimit="10" stroke-width="1.3612669416666667" stroke-dasharray=""/><g transform="translate(696.5128509633777,741.1281737209998) translate(-696.5128509633777,-741.1281737209998)"><path fill="black" stroke="none" paint-order="stroke fill markers" d=" M 710.1255203800443 734.3218390126665 L 696.5128509633777 741.1281737209998 L 710.1255203800443 747.9345084293332 Z"/></g></g><g><g><rect fill="white" stroke="none" x="818.6428219949726" y="765.6309786709998" width="87.17682136597656" height="21.23576429"/></g><text fill="black" stroke="none" font-family="sans-serif" font-size="11pt" font-style="normal" font-weight="normal" text-decoration="normal" x="821.0931024899726" y="780.3326616409997" text-anchor="start" dominant-baseline="alphabetic" xml:space="preserve">terraform init</text></g><g><path fill="none" stroke="black" paint-order="fill stroke markers" d=" M 696.5128509633777 786.8667429609998 L 1025.2270805092107 786.8667429609998" stroke-miterlimit="10" stroke-width="1.3612669416666667" stroke-dasharray=""/><g transform="translate(1027.9496143925442,786.8667429609998) translate(-1027.9496143925442,-786.8667429609998)"><path fill="black" stroke="none" paint-order="stroke fill markers" d=" M 1014.3369449758775 780.0604082526664 L 1027.9496143925442 786.8667429609998 L 1014.3369449758775 793.6730776693331 Z"/></g></g><g><g><rect fill="white" stroke="none" x="814.1546322977069" y="811.3695479109997" width="96.15320076050781" height="21.23576429"/></g><text fill="black" stroke="none" font-family="sans-serif" font-size="11pt" font-style="normal" font-weight="normal" text-decoration="normal" x="816.604912792707" y="826.0712308809997" text-anchor="start" dominant-baseline="alphabetic" xml:space="preserve">terraform plan</text></g><g><path fill="none" stroke="black" paint-order="fill stroke markers" d=" M 696.5128509633777 832.6053122009997 L 1025.2270805092107 832.6053122009997" stroke-miterlimit="10" stroke-width="1.3612669416666667" stroke-dasharray=""/><g transform="translate(1027.9496143925442,832.6053122009997) translate(-1027.9496143925442,-832.6053122009997)"><path fill="black" stroke="none" paint-order="stroke fill markers" d=" M 1014.3369449758775 825.7989774926664 L 1027.9496143925442 832.6053122009997 L 1014.3369449758775 839.4116469093331 Z"/></g></g><g><g><rect fill="white" stroke="none" x="803.7824093973163" y="857.1081171509996" width="116.89764656128906" height="21.23576429"/></g><text fill="black" stroke="none" font-family="sans-serif" font-size="11pt" font-style="normal" font-weight="normal" text-decoration="normal" x="806.2326898923163" y="871.8098001209996" text-anchor="start" dominant-baseline="alphabetic" xml:space="preserve">Plan's raw output</text></g><g><path fill="none" stroke="black" paint-order="fill stroke markers" d=" M 1027.9496143925442 878.3438814409997 L 699.235384846711 878.3438814409997" stroke-miterlimit="10" stroke-width="1.3612669416666667" stroke-dasharray="6.53408132"/><g transform="translate(696.5128509633777,878.3438814409997) translate(-696.5128509633777,-878.3438814409997)"><path fill="black" stroke="none" paint-order="stroke fill markers" d=" M 710.1255203800443 871.5375467326663 L 696.5128509633777 878.3438814409997 L 710.1255203800443 885.150216149333 Z"/></g></g><g><g><rect fill="white" stroke="none" x="487.6794416827656" y="902.8466863909996" width="103.49753059449219" height="21.23576429"/></g><text fill="black" stroke="none" font-family="sans-serif" font-size="11pt" font-style="normal" font-weight="normal" text-decoration="normal" x="490.12972217776564" y="917.5483693609996" text-anchor="start" dominant-baseline="alphabetic" xml:space="preserve">Formatted plan</text></g><g><path fill="none" stroke="black" paint-order="fill stroke markers" d=" M 680.1776476633776 924.0824506809996 L 401.40130017997916 924.0824506809996" stroke-miterlimit="10" stroke-width="1.3612669416666667" stroke-dasharray="6.53408132"/><g transform="translate(398.67876629664585,924.0824506809996) translate(-398.67876629664585,-924.0824506809996)"><path fill="black" stroke="none" paint-order="stroke fill markers" d=" M 412.2914357133125 917.2761159726663 L 398.67876629664585 924.0824506809996 L 412.2914357133125 930.888785389333 Z"/></g></g><g><g><rect fill="white" stroke="none" x="165.8117647919128" y="948.5852556309995" width="92.08734382691406" height="21.23576429"/></g><text fill="black" stroke="none" font-family="sans-serif" font-size="11pt" font-style="normal" font-weight="normal" text-decoration="normal" x="168.26204528691278" y="963.2869386009995" text-anchor="start" dominant-baseline="alphabetic" xml:space="preserve">Displays plan</text></g><g><path fill="none" stroke="black" paint-order="fill stroke markers" d=" M 382.34356299664586 969.8210199209996 L 44.089844297427085 969.8210199209996" stroke-miterlimit="10" stroke-width="1.3612669416666667" stroke-dasharray="6.53408132"/><g transform="translate(41.36731041409375,969.8210199209996) translate(-41.36731041409375,-969.8210199209996)"><path fill="black" stroke="none" paint-order="stroke fill markers" d=" M 54.97997983076042 963.0146852126662 L 41.36731041409375 969.8210199209996 L 54.97997983076042 976.6273546293329 Z"/></g></g><g><g><rect fill="white" stroke="none" x="140.6614504608581" y="994.3238248709995" width="142.38797248902344" height="21.23576429"/></g><text fill="black" stroke="none" font-family="sans-serif" font-size="11pt" font-style="normal" font-weight="normal" text-decoration="normal" x="143.1117309558581" y="1009.0255078409995" text-anchor="start" dominant-baseline="alphabetic" xml:space="preserve">Clicks "ok" to confirm</text></g><g><path fill="none" stroke="black" paint-order="fill stroke markers" d=" M 41.36731041409375 1015.5595891609995 L 379.62102911331255 1015.5595891609995" stroke-miterlimit="10" stroke-width="1.3612669416666667" stroke-dasharray=""/><g transform="translate(382.34356299664586,1015.5595891609995) translate(-382.34356299664586,-1015.5595891609995)"><path fill="black" stroke="none" paint-order="stroke fill markers" d=" M 368.7308935799792 1008.7532544526662 L 382.34356299664586 1015.5595891609995 L 368.7308935799792 1022.3659238693328 Z"/></g></g><g><g><rect fill="white" stroke="none" x="484.8161756915547" y="1040.0623941109995" width="109.22406257691406" height="21.23576429"/></g><text fill="black" stroke="none" font-family="sans-serif" font-size="11pt" font-style="normal" font-weight="normal" text-decoration="normal" x="487.2664561865547" y="1054.7640770809996" text-anchor="start" dominant-baseline="alphabetic" xml:space="preserve">Applies the plan</text></g><g><path fill="none" stroke="black" paint-order="fill stroke markers" d=" M 398.67876629664585 1061.2981584009995 L 677.4551137800443 1061.2981584009995" stroke-miterlimit="10" stroke-width="1.3612669416666667" stroke-dasharray=""/><g transform="translate(680.1776476633776,1061.2981584009995) translate(-680.1776476633776,-1061.2981584009995)"><path fill="none" stroke="black" paint-order="fill stroke markers" d=" M 666.5649782467109 1054.4918236926662 L 678.8163807217109 1061.2981584009995 L 666.5649782467109 1068.1044931093327" stroke-miterlimit="10" stroke-width="1.3612669416666667"/></g></g><g><g><rect fill="white" stroke="none" x="810.4896390115741" y="1085.8009633509996" width="103.48318733277344" height="21.23576429"/></g><text fill="black" stroke="none" font-family="sans-serif" font-size="11pt" font-style="normal" font-weight="normal" text-decoration="normal" x="812.9399195065741" y="1100.5026463209997" text-anchor="start" dominant-baseline="alphabetic" xml:space="preserve">terraform apply</text></g><g><path fill="none" stroke="black" paint-order="fill stroke markers" d=" M 696.5128509633777 1107.0367276409995 L 1025.2270805092107 1107.0367276409995" stroke-miterlimit="10" stroke-width="1.3612669416666667" stroke-dasharray=""/><g transform="translate(1027.9496143925442,1107.0367276409995) translate(-1027.9496143925442,-1107.0367276409995)"><path fill="black" stroke="none" paint-order="stroke fill markers" d=" M 1014.3369449758775 1100.2303929326663 L 1027.9496143925442 1107.0367276409995 L 1014.3369449758775 1113.8430623493327 Z"/></g></g><g><g><rect fill="white" stroke="none" x="503.58143403608597" y="1131.5395325909997" width="79.86114753785156" height="21.23576429"/></g><text fill="black" stroke="none" font-family="sans-serif" font-size="11pt" font-style="normal" font-weight="normal" text-decoration="normal" x="506.031714531086" y="1146.2412155609998" text-anchor="start" dominant-baseline="alphabetic" xml:space="preserve">Polls status</text></g><g><path fill="none" stroke="black" paint-order="fill stroke markers" d=" M 398.67876629664585 1152.7752968809996 L 685.6227154300443 1152.7752968809996" stroke-miterlimit="10" stroke-width="1.3612669416666667" stroke-dasharray=""/><g transform="translate(688.3452493133776,1152.7752968809996) translate(-688.3452493133776,-1152.7752968809996)"><path fill="black" stroke="none" paint-order="stroke fill markers" d=" M 674.732579896711 1145.9689621726664 L 688.3452493133776 1152.7752968809996 L 674.732579896711 1159.5816315893328 Z"/></g></g><g><g><rect fill="white" stroke="none" x="472.19275453169143" y="1177.2781018309997" width="142.63850654664063" height="21.23576429"/></g><text fill="black" stroke="none" font-family="sans-serif" font-size="11pt" font-style="normal" font-weight="normal" text-decoration="normal" x="474.64303502669145" y="1191.9797848009998" text-anchor="start" dominant-baseline="alphabetic" xml:space="preserve">Status: build_running</text></g><g><path fill="none" stroke="black" paint-order="fill stroke markers" d=" M 688.3452493133776 1198.5138661209996 L 401.40130017997916 1198.5138661209996" stroke-miterlimit="10" stroke-width="1.3612669416666667" stroke-dasharray="6.53408132"/><g transform="translate(398.67876629664585,1198.5138661209996) translate(-398.67876629664585,-1198.5138661209996)"><path fill="black" stroke="none" paint-order="stroke fill markers" d=" M 412.2914357133125 1191.7075314126664 L 398.67876629664585 1198.5138661209996 L 412.2914357133125 1205.3202008293329 Z"/></g></g><g><g><rect fill="white" stroke="none" x="771.3736951028827" y="1223.0166710709998" width="181.71507515015625" height="21.23576429"/></g><text fill="black" stroke="none" font-family="sans-serif" font-size="11pt" font-style="normal" font-weight="normal" text-decoration="normal" x="773.8239755978827" y="1237.7183540409999" text-anchor="start" dominant-baseline="alphabetic" xml:space="preserve">terraform apply return code</text></g><g><path fill="none" stroke="black" paint-order="fill stroke markers" d=" M 1027.9496143925442 1244.2524353609997 L 699.235384846711 1244.2524353609997" stroke-miterlimit="10" stroke-width="1.3612669416666667" stroke-dasharray="6.53408132"/><g transform="translate(696.5128509633777,1244.2524353609997) translate(-696.5128509633777,-1244.2524353609997)"><path fill="black" stroke="none" paint-order="stroke fill markers" d=" M 710.1255203800443 1237.4461006526665 L 696.5128509633777 1244.2524353609997 L 710.1255203800443 1251.058770069333 Z"/></g></g><g><g><rect fill="white" stroke="none" x="503.58143403608597" y="1268.7552403109999" width="79.86114753785156" height="21.23576429"/></g><text fill="black" stroke="none" font-family="sans-serif" font-size="11pt" font-style="normal" font-weight="normal" text-decoration="normal" x="506.031714531086" y="1283.456923281" text-anchor="start" dominant-baseline="alphabetic" xml:space="preserve">Polls status</text></g><g><path fill="none" stroke="black" paint-order="fill stroke markers" d=" M 398.67876629664585 1289.9910046009998 L 685.6227154300443 1289.9910046009998" stroke-miterlimit="10" stroke-width="1.3612669416666667" stroke-dasharray=""/><g transform="translate(688.3452493133776,1289.9910046009998) translate(-688.3452493133776,-1289.9910046009998)"><path fill="black" stroke="none" paint-order="stroke fill markers" d=" M 674.732579896711 1283.1846698926665 L 688.3452493133776 1289.9910046009998 L 674.732579896711 1296.797339309333 Z"/></g></g><g><g><rect fill="white" stroke="none" x="448.5635659940938" y="1314.493809551" width="189.89688362183594" height="21.23576429"/></g><text fill="black" stroke="none" font-family="sans-serif" font-size="11pt" font-style="normal" font-weight="normal" text-decoration="normal" x="451.0138464890938" y="1329.195492521" text-anchor="start" dominant-baseline="alphabetic" xml:space="preserve">Status: provisioning_running</text></g><g><path fill="none" stroke="black" paint-order="fill stroke markers" d=" M 688.3452493133776 1335.7295738409998 L 401.40130017997916 1335.7295738409998" stroke-miterlimit="10" stroke-width="1.3612669416666667" stroke-dasharray="6.53408132"/><g transform="translate(398.67876629664585,1335.7295738409998) translate(-398.67876629664585,-1335.7295738409998)"><path fill="black" stroke="none" paint-order="stroke fill markers" d=" M 412.2914357133125 1328.9232391326666 L 398.67876629664585 1335.7295738409998 L 412.2914357133125 1342.535908549333 Z"/></g></g><g><g><rect fill="white" stroke="none" x="479.5370614774922" y="1360.232378791" width="127.94989265503906" height="21.23576429"/></g><text fill="black" stroke="none" font-family="sans-serif" font-size="11pt" font-style="normal" font-weight="normal" text-decoration="normal" x="481.98734197249223" y="1374.934061761" text-anchor="start" dominant-baseline="alphabetic" xml:space="preserve">Loads cluster state</text></g><g><path fill="none" stroke="black" paint-order="fill stroke markers" d=" M 398.67876629664585 1381.4681430809999 L 685.6227154300443 1381.4681430809999" stroke-miterlimit="10" stroke-width="1.3612669416666667" stroke-dasharray=""/><g transform="translate(688.3452493133776,1381.4681430809999) translate(-688.3452493133776,-1381.4681430809999)"><path fill="black" stroke="none" paint-order="stroke fill markers" d=" M 674.732579896711 1374.6618083726667 L 688.3452493133776 1381.4681430809999 L 674.732579896711 1388.274477789333 Z"/></g></g><g><g><rect fill="white" stroke="none" x="422.09255769331253" y="1405.970948031" width="242.83890022339844" height="21.23576429"/></g><text fill="black" stroke="none" font-family="sans-serif" font-size="11pt" font-style="normal" font-weight="normal" text-decoration="normal" x="424.54283818831254" y="1420.6726310010001" text-anchor="start" dominant-baseline="alphabetic" xml:space="preserve">Gets available OpenStack resources</text></g><g><path fill="none" stroke="black" paint-order="fill stroke markers" d=" M 398.67876629664585 1427.206712321 L 685.6227154300443 1427.206712321" stroke-miterlimit="10" stroke-width="1.3612669416666667" stroke-dasharray=""/><g transform="translate(688.3452493133776,1427.206712321) translate(-688.3452493133776,-1427.206712321)"><path fill="black" stroke="none" paint-order="stroke fill markers" d=" M 674.732579896711 1420.4003776126667 L 688.3452493133776 1427.206712321 L 674.732579896711 1434.0130470293332 Z"/></g></g><g><g><rect fill="white" stroke="none" x="499.9164331205586" y="1451.709517271" width="87.19114936890625" height="21.23576429"/></g><text fill="black" stroke="none" font-family="sans-serif" font-size="11pt" font-style="normal" font-weight="normal" text-decoration="normal" x="502.36671361555864" y="1466.4112002410002" text-anchor="start" dominant-baseline="alphabetic" xml:space="preserve">Cluster state</text></g><g><path fill="none" stroke="black" paint-order="fill stroke markers" d=" M 688.3452493133776 1472.945281561 L 401.40130017997916 1472.945281561" stroke-miterlimit="10" stroke-width="1.3612669416666667" stroke-dasharray="6.53408132"/><g transform="translate(398.67876629664585,1472.945281561) translate(-398.67876629664585,-1472.945281561)"><path fill="black" stroke="none" paint-order="stroke fill markers" d=" M 412.2914357133125 1466.1389468526668 L 398.67876629664585 1472.945281561 L 412.2914357133125 1479.7516162693332 Z"/></g></g><g><g><rect fill="white" stroke="none" x="438.9286401518086" y="1497.4480865110002" width="209.16673530640625" height="21.23576429"/></g><text fill="black" stroke="none" font-family="sans-serif" font-size="11pt" font-style="normal" font-weight="normal" text-decoration="normal" x="441.37892064680864" y="1512.1497694810002" text-anchor="start" dominant-baseline="alphabetic" xml:space="preserve">Available OpenStack resources</text></g><g><path fill="none" stroke="black" paint-order="fill stroke markers" d=" M 688.3452493133776 1518.683850801 L 401.40130017997916 1518.683850801" stroke-miterlimit="10" stroke-width="1.3612669416666667" stroke-dasharray="6.53408132"/><g transform="translate(398.67876629664585,1518.683850801) translate(-398.67876629664585,-1518.683850801)"><path fill="black" stroke="none" paint-order="stroke fill markers" d=" M 412.2914357133125 1511.8775160926668 L 398.67876629664585 1518.683850801 L 412.2914357133125 1525.4901855093333 Z"/></g></g><g><g><rect fill="white" stroke="none" x="60.697300985760435" y="1543.1866557510002" width="302.3162714392187" height="21.23576429"/></g><text fill="black" stroke="none" font-family="sans-serif" font-size="11pt" font-style="normal" font-weight="normal" text-decoration="normal" x="63.14758148076044" y="1557.8883387210003" text-anchor="start" dominant-baseline="alphabetic" xml:space="preserve">Displays cluster state and available resources</text></g><g><path fill="none" stroke="black" paint-order="fill stroke markers" d=" M 382.34356299664586 1564.4224200410001 L 44.089844297427085 1564.4224200410001" stroke-miterlimit="10" stroke-width="1.3612669416666667" stroke-dasharray="6.53408132"/><g transform="translate(41.36731041409375,1564.4224200410001) translate(-41.36731041409375,-1564.4224200410001)"><path fill="black" stroke="none" paint-order="stroke fill markers" d=" M 54.97997983076042 1557.616085332667 L 41.36731041409375 1564.4224200410001 L 54.97997983076042 1571.2287547493333 Z"/></g></g><g><g><rect fill="white" stroke="none" x="842.7846579942238" y="1588.9252249910003" width="149.11668647828125" height="21.23576429"/></g><text fill="black" stroke="none" font-family="sans-serif" font-size="11pt" font-style="normal" font-weight="normal" text-decoration="normal" x="845.2349384892239" y="1603.6269079610004" text-anchor="start" dominant-baseline="alphabetic" xml:space="preserve">Polls JupyterHub URL</text></g><g><path fill="none" stroke="black" paint-order="fill stroke markers" d=" M 696.5128509633777 1610.1609892810002 L 1135.450617620018 1610.1609892810002" stroke-miterlimit="10" stroke-width="1.3612669416666667" stroke-dasharray=""/><g transform="translate(1138.1731515033514,1610.1609892810002) translate(-1138.1731515033514,-1610.1609892810002)"><path fill="black" stroke="none" paint-order="stroke fill markers" d=" M 1124.5604820866847 1603.354654572667 L 1138.1731515033514 1610.1609892810002 L 1124.5604820866847 1616.9673239893334 Z"/></g></g><g><g><rect fill="white" stroke="none" x="851.7359748277199" y="1634.6637942310003" width="131.21405281128906" height="21.23576429"/></g><text fill="black" stroke="none" font-family="sans-serif" font-size="11pt" font-style="normal" font-weight="normal" text-decoration="normal" x="854.18625532272" y="1649.3654772010004" text-anchor="start" dominant-baseline="alphabetic" xml:space="preserve">Connection timeout</text></g><g><path fill="none" stroke="black" paint-order="fill stroke markers" d=" M 1138.1731515033514 1655.8995585210002 L 699.235384846711 1655.8995585210002" stroke-miterlimit="10" stroke-width="1.3612669416666667" stroke-dasharray="6.53408132"/><g transform="translate(696.5128509633777,1655.8995585210002) translate(-696.5128509633777,-1655.8995585210002)"><path fill="black" stroke="none" paint-order="stroke fill markers" d=" M 710.1255203800443 1649.093223812667 L 696.5128509633777 1655.8995585210002 L 710.1255203800443 1662.7058932293335 Z"/></g></g><g><g><rect fill="white" stroke="none" x="853.9263892564309" y="1680.4023634710004" width="126.83322395386719" height="21.23576429"/></g><text fill="black" stroke="none" font-family="sans-serif" font-size="11pt" font-style="normal" font-weight="normal" text-decoration="normal" x="856.3766697514309" y="1695.1040464410005" text-anchor="start" dominant-baseline="alphabetic" xml:space="preserve">Polls FreeIPA URL</text></g><g><path fill="none" stroke="black" paint-order="fill stroke markers" d=" M 696.5128509633777 1701.6381277610003 L 1135.450617620018 1701.6381277610003" stroke-miterlimit="10" stroke-width="1.3612669416666667" stroke-dasharray=""/><g transform="translate(1138.1731515033514,1701.6381277610003) translate(-1138.1731515033514,-1701.6381277610003)"><path fill="black" stroke="none" paint-order="stroke fill markers" d=" M 1124.5604820866847 1694.831793052667 L 1138.1731515033514 1701.6381277610003 L 1124.5604820866847 1708.4444624693335 Z"/></g></g><g><g><rect fill="white" stroke="none" x="851.7359748277199" y="1726.1409327110005" width="131.21405281128906" height="21.23576429"/></g><text fill="black" stroke="none" font-family="sans-serif" font-size="11pt" font-style="normal" font-weight="normal" text-decoration="normal" x="854.18625532272" y="1740.8426156810006" text-anchor="start" dominant-baseline="alphabetic" xml:space="preserve">Connection timeout</text></g><g><path fill="none" stroke="black" paint-order="fill stroke markers" d=" M 1138.1731515033514 1747.3766970010004 L 699.235384846711 1747.3766970010004" stroke-miterlimit="10" stroke-width="1.3612669416666667" stroke-dasharray="6.53408132"/><g transform="translate(696.5128509633777,1747.3766970010004) translate(-696.5128509633777,-1747.3766970010004)"><path fill="black" stroke="none" paint-order="stroke fill markers" d=" M 710.1255203800443 1740.5703622926671 L 696.5128509633777 1747.3766970010004 L 710.1255203800443 1754.1830317093336 Z"/></g></g><g><g><rect fill="white" stroke="none" x="503.58143403608597" y="1771.8795019510005" width="79.86114753785156" height="21.23576429"/></g><text fill="black" stroke="none" font-family="sans-serif" font-size="11pt" font-style="normal" font-weight="normal" text-decoration="normal" x="506.031714531086" y="1786.5811849210006" text-anchor="start" dominant-baseline="alphabetic" xml:space="preserve">Polls status</text></g><g><path fill="none" stroke="black" paint-order="fill stroke markers" d=" M 398.67876629664585 1793.1152662410004 L 685.6227154300443 1793.1152662410004" stroke-miterlimit="10" stroke-width="1.3612669416666667" stroke-dasharray=""/><g transform="translate(688.3452493133776,1793.1152662410004) translate(-688.3452493133776,-1793.1152662410004)"><path fill="black" stroke="none" paint-order="stroke fill markers" d=" M 674.732579896711 1786.3089315326672 L 688.3452493133776 1793.1152662410004 L 674.732579896711 1799.9216009493337 Z"/></g></g><g><g><rect fill="white" stroke="none" x="448.5635659940938" y="1817.6180711910006" width="189.89688362183594" height="21.23576429"/></g><text fill="black" stroke="none" font-family="sans-serif" font-size="11pt" font-style="normal" font-weight="normal" text-decoration="normal" x="451.0138464890938" y="1832.3197541610007" text-anchor="start" dominant-baseline="alphabetic" xml:space="preserve">Status: provisioning_running</text></g><g><path fill="none" stroke="black" paint-order="fill stroke markers" d=" M 688.3452493133776 1838.8538354810005 L 401.40130017997916 1838.8538354810005" stroke-miterlimit="10" stroke-width="1.3612669416666667" stroke-dasharray="6.53408132"/><g transform="translate(398.67876629664585,1838.8538354810005) translate(-398.67876629664585,-1838.8538354810005)"><path fill="black" stroke="none" paint-order="stroke fill markers" d=" M 412.2914357133125 1832.0475007726673 L 398.67876629664585 1838.8538354810005 L 412.2914357133125 1845.6601701893337 Z"/></g></g><g><g><rect fill="white" stroke="none" x="842.7846579942238" y="1863.3566404310006" width="149.11668647828125" height="21.23576429"/></g><text fill="black" stroke="none" font-family="sans-serif" font-size="11pt" font-style="normal" font-weight="normal" text-decoration="normal" x="845.2349384892239" y="1878.0583234010007" text-anchor="start" dominant-baseline="alphabetic" xml:space="preserve">Polls JupyterHub URL</text></g><g><path fill="none" stroke="black" paint-order="fill stroke markers" d=" M 696.5128509633777 1884.5924047210005 L 1135.450617620018 1884.5924047210005" stroke-miterlimit="10" stroke-width="1.3612669416666667" stroke-dasharray=""/><g transform="translate(1138.1731515033514,1884.5924047210005) translate(-1138.1731515033514,-1884.5924047210005)"><path fill="black" stroke="none" paint-order="stroke fill markers" d=" M 1124.5604820866847 1877.7860700126673 L 1138.1731515033514 1884.5924047210005 L 1124.5604820866847 1891.3987394293338 Z"/></g></g><g><g><rect fill="white" stroke="none" x="863.1389823350441" y="1909.0952096710007" width="108.40803779664063" height="21.23576429"/></g><text fill="black" stroke="none" font-family="sans-serif" font-size="11pt" font-style="normal" font-weight="normal" text-decoration="normal" x="865.5892628300442" y="1923.7968926410008" text-anchor="start" dominant-baseline="alphabetic" xml:space="preserve">200 status code</text></g><g><path fill="none" stroke="black" paint-order="fill stroke markers" d=" M 1138.1731515033514 1930.3309739610006 L 699.235384846711 1930.3309739610006" stroke-miterlimit="10" stroke-width="1.3612669416666667" stroke-dasharray="6.53408132"/><g transform="translate(696.5128509633777,1930.3309739610006) translate(-696.5128509633777,-1930.3309739610006)"><path fill="black" stroke="none" paint-order="stroke fill markers" d=" M 710.1255203800443 1923.5246392526674 L 696.5128509633777 1930.3309739610006 L 710.1255203800443 1937.1373086693338 Z"/></g></g><g><g><rect fill="white" stroke="none" x="853.9263892564309" y="1954.8337789110008" width="126.83322395386719" height="21.23576429"/></g><text fill="black" stroke="none" font-family="sans-serif" font-size="11pt" font-style="normal" font-weight="normal" text-decoration="normal" x="856.3766697514309" y="1969.5354618810009" text-anchor="start" dominant-baseline="alphabetic" xml:space="preserve">Polls FreeIPA URL</text></g><g><path fill="none" stroke="black" paint-order="fill stroke markers" d=" M 696.5128509633777 1976.0695432010007 L 1135.450617620018 1976.0695432010007" stroke-miterlimit="10" stroke-width="1.3612669416666667" stroke-dasharray=""/><g transform="translate(1138.1731515033514,1976.0695432010007) translate(-1138.1731515033514,-1976.0695432010007)"><path fill="black" stroke="none" paint-order="stroke fill markers" d=" M 1124.5604820866847 1969.2632084926674 L 1138.1731515033514 1976.0695432010007 L 1124.5604820866847 1982.875877909334 Z"/></g></g><g><g><rect fill="white" stroke="none" x="863.1389823350441" y="2000.5723481510008" width="108.40803779664063" height="21.23576429"/></g><text fill="black" stroke="none" font-family="sans-serif" font-size="11pt" font-style="normal" font-weight="normal" text-decoration="normal" x="865.5892628300442" y="2015.274031121001" text-anchor="start" dominant-baseline="alphabetic" xml:space="preserve">200 status code</text></g><g><path fill="none" stroke="black" paint-order="fill stroke markers" d=" M 1138.1731515033514 2021.8081124410007 L 699.235384846711 2021.8081124410007" stroke-miterlimit="10" stroke-width="1.3612669416666667" stroke-dasharray="6.53408132"/><g transform="translate(696.5128509633777,2021.8081124410007) translate(-696.5128509633777,-2021.8081124410007)"><path fill="black" stroke="none" paint-order="stroke fill markers" d=" M 710.1255203800443 2015.0017777326675 L 696.5128509633777 2021.8081124410007 L 710.1255203800443 2028.614447149334 Z"/></g></g><g><g><rect fill="white" stroke="none" x="499.49763321108594" y="2046.3109173910009" width="79.86114753785156" height="21.23576429"/></g><text fill="black" stroke="none" font-family="sans-serif" font-size="11pt" font-style="normal" font-weight="normal" text-decoration="normal" x="501.94791370608596" y="2061.0126003610008" text-anchor="start" dominant-baseline="alphabetic" xml:space="preserve">Polls status</text></g><g><path fill="none" stroke="black" paint-order="fill stroke markers" d=" M 398.67876629664585 2067.546681681001 L 677.4551137800443 2067.546681681001" stroke-miterlimit="10" stroke-width="1.3612669416666667" stroke-dasharray=""/><g transform="translate(680.1776476633776,2067.546681681001) translate(-680.1776476633776,-2067.546681681001)"><path fill="black" stroke="none" paint-order="stroke fill markers" d=" M 666.5649782467109 2060.7403469726673 L 680.1776476633776 2067.546681681001 L 666.5649782467109 2074.3530163893342 Z"/></g></g><g><g><rect fill="white" stroke="none" x="442.4540007037617" y="2092.0494866310005" width="193.9484125525" height="21.23576429"/></g><text fill="black" stroke="none" font-family="sans-serif" font-size="11pt" font-style="normal" font-weight="normal" text-decoration="normal" x="444.90428119876174" y="2106.7511696010006" text-anchor="start" dominant-baseline="alphabetic" xml:space="preserve">Status: provisioning_success</text></g><g><path fill="none" stroke="black" paint-order="fill stroke markers" d=" M 680.1776476633776 2113.2852509210006 L 401.40130017997916 2113.2852509210006" stroke-miterlimit="10" stroke-width="1.3612669416666667" stroke-dasharray="6.53408132"/><g transform="translate(398.67876629664585,2113.2852509210006) translate(-398.67876629664585,-2113.2852509210006)"><path fill="black" stroke="none" paint-order="stroke fill markers" d=" M 412.2914357133125 2106.478916212667 L 398.67876629664585 2113.2852509210006 L 412.2914357133125 2120.091585629334 Z"/></g></g><g><g><rect fill="white" stroke="none" x="131.59203060001826" y="2137.7880558710003" width="160.52681221070313" height="21.23576429"/></g><text fill="black" stroke="none" font-family="sans-serif" font-size="11pt" font-style="normal" font-weight="normal" text-decoration="normal" x="134.04231109501825" y="2152.4897388410004" text-anchor="start" dominant-baseline="alphabetic" xml:space="preserve">Displays success dialog</text></g><g><path fill="none" stroke="black" paint-order="fill stroke markers" d=" M 382.34356299664586 2159.0238201610005 L 44.089844297427085 2159.0238201610005" stroke-miterlimit="10" stroke-width="1.3612669416666667" stroke-dasharray="6.53408132"/><g transform="translate(41.36731041409375,2159.0238201610005) translate(-41.36731041409375,-2159.0238201610005)"><path fill="black" stroke="none" paint-order="stroke fill markers" d=" M 54.97997983076042 2152.217485452667 L 41.36731041409375 2159.0238201610005 L 54.97997983076042 2165.830154869334 Z"/></g></g></g><g/><g/><g/><g/><g/></g></svg>